<svg width="407" height="209" viewBox="0 0 407 209" xmlns="http://www.w3.org/2000/svg" xmlns:xlink="http://www.w3.org/1999/xlink"><title id="footer-logo-lockup-name">The Last Pickle – Est 2010.</title><defs><linearGradient x1="50%" y1="0%" x2="50%" y2="100%"><stop stop-color="#FAF9F4" offset="0%"/><stop stop-color="#F3EFE4" offset="100%"/></linearGradient><path d="M63.504 62.647c-6.324 6.275-14.732 9.731-23.675 9.731-8.942 0-17.348-3.456-23.671-9.731-6.325-6.274-9.807-14.617-9.807-23.491 0-8.873 3.482-17.216 9.807-23.491 6.324-6.274 14.729-9.729 23.671-9.729 8.944 0 17.352 3.456 23.675 9.729 6.324 6.275 9.806 14.617 9.806 23.491 0 8.874-3.482 17.216-9.806 23.491m16.445-23.465c-.006-2.897-3.207-5.418-3.851-8.174-.655-2.802 1.089-6.461-.166-9.022-1.262-2.573-5.242-3.473-7.044-5.707-1.794-2.223-1.812-6.276-4.082-8.064-2.233-1.76-6.207-.862-8.841-2.108-2.554-1.208-4.338-4.853-7.214-5.495-2.875-.642-6.06 1.893-8.888 1.899-2.921.006-6.122-2.495-8.901-1.855-2.823.651-4.589 4.306-7.17 5.552-2.594 1.251-6.58.372-8.83 2.161-2.239 1.781-2.244 5.829-4.046 8.081-1.773 2.217-5.753 3.134-7.01 5.749-1.217 2.533.551 6.172-.094 9.025-.647 2.852-3.817 5.39-3.812 8.195.007 2.896 3.208 5.418 3.853 8.174.655 2.801-1.089 6.461.165 9.022 1.263 2.573 5.242 3.473 7.045 5.706 1.795 2.222 1.811 6.276 4.081 8.064 2.235 1.76 6.209.861 8.842 2.108 2.554 1.208 4.337 4.854 7.213 5.496 2.874.642 6.061-1.893 8.889-1.899 2.919-.007 6.119 2.493 8.899 1.854 2.824-.65 4.59-4.306 7.169-5.552 2.595-1.251 6.58-.371 8.83-2.161 2.24-1.779 2.244-5.828 4.046-8.081 1.773-2.217 5.753-3.135 7.009-5.749 1.216-2.533-.551-6.173.097-9.025.645-2.853 3.815-5.389 3.809-8.195z" id="b"/><filter x="-50%" y="-50%" width="200%" height="200%" filterUnits="objectBoundingBox" id="c"><feGaussianBlur stdDeviation="1" in="SourceAlpha" result="shadowBlurInner1"/><feOffset dy="1" in="shadowBlurInner1" result="shadowOffsetInner1"/><feComposite in="shadowOffsetInner1" in2="SourceAlpha" operator="arithmetic" k2="-1" k3="1" result="shadowInnerInner1"/><feColorMatrix values="0 0 0 0 0.490196078 0 0 0 0 0.552941176 0 0 0 0 0.223529412 0 0 0 1 0" in="shadowInnerInner1"/></filter><path d="M8.305 39.156c0 17.248 14.142 31.281 31.524 31.281 17.384 0 31.527-14.032 31.527-31.281 0-17.247-14.143-31.28-31.527-31.28-17.382 0-31.524 14.032-31.524 31.28z" id="a"/><filter x="-50%" y="-50%" width="200%" height="200%" filterUnits="objectBoundingBox" id="d"><feGaussianBlur stdDeviation="4" in="SourceAlpha" result="shadowBlurInner1"/><feOffset in="shadowBlurInner1" result="shadowOffsetInner1"/><feComposite in="shadowOffsetInner1" in2="SourceAlpha" operator="arithmetic" k2="-1" k3="1" result="shadowInnerInner1"/><feColorMatrix values="0 0 0 0 0.68627451 0 0 0 0 0.670588235 0 0 0 0 0.580392157 0 0 0 1 0" in="shadowInnerInner1"/></filter><mask id="e" x="-1.92" y="-1.92" width="66.89" height="66.4"><path fill="#fff" d="M6.385 5.957h66.89v66.4h-66.89z"/><use xlink:href="#a"/></mask></defs><g fill="none"><g><path d="M203.499 25l-.372.122s-8.426 2.716-21.507 6.931c-13.086 4.217-30.827 9.934-49.467 15.931-37.276 11.995-78.145 25.121-92.479 29.631l-.919.291-.007.002c-9.616 3.135-17.782 8.123-23.569 14.353-5.77 6.213-9.163 13.683-9.177 21.713v.053c.013 8.03 3.407 15.5 9.177 21.715 5.788 6.229 13.953 11.22 23.569 14.355l.009.002.919.291c25.087 7.891 131.416 42.162 157.603 50.605 3.741 1.208 5.848 1.886 5.848 1.886l.374.12.377-.12c.004-.002 2.105-.677 5.846-1.886 3.741-1.206 9.118-2.94 15.659-5.047 13.084-4.215 30.825-9.932 49.465-15.929 37.28-11.997 78.145-25.121 92.479-29.631l.921-.291h.007c9.616-3.135 17.784-8.125 23.567-14.355 5.772-6.215 9.165-13.685 9.179-21.715v-.053c-.013-8.03-3.407-15.5-9.179-21.713-5.783-6.229-13.951-11.218-23.567-14.353l-.009-.002-.921-.293c-25.084-7.893-131.414-42.165-157.601-50.607-3.741-1.204-5.841-1.882-5.846-1.884l-.379-.122z" fill="#F9F7EF"/><path d="M203.499 25l-.372.122s-8.426 2.716-21.507 6.931c-13.086 4.217-30.827 9.934-49.467 15.931-37.276 11.995-78.145 25.121-92.479 29.631l-.919.291-.007.002c-9.616 3.135-17.782 8.123-23.569 14.353-5.77 6.213-9.163 13.683-9.177 21.713v.053c.013 8.03 3.407 15.5 9.177 21.715 5.788 6.229 13.953 11.22 23.569 14.355l.009.002.919.291c25.087 7.891 131.416 42.162 157.603 50.605 3.741 1.208 5.848 1.886 5.848 1.886l.374.12.377-.12c.004-.002 2.105-.677 5.846-1.886 3.741-1.206 9.118-2.94 15.659-5.047 13.084-4.215 30.825-9.932 49.465-15.929 37.28-11.997 78.145-25.121 92.479-29.631l.921-.291h.007c9.616-3.135 17.784-8.125 23.567-14.355 5.772-6.215 9.165-13.685 9.179-21.715v-.053c-.013-8.03-3.407-15.5-9.179-21.713-5.783-6.229-13.951-11.218-23.567-14.353l-.009-.002-.921-.293c-25.084-7.893-131.414-42.165-157.601-50.607-3.741-1.204-5.841-1.882-5.846-1.884l-.379-.122zm-1.746-5.321l1.73-.568 1.733.558.379.122.305.098.292.132-.492-.197.287.093 1.131.365 4.324 1.393c25.573 8.245 52.754 17 79.21 25.508 39.415 12.676 67.202 21.578 78.369 25.092l.921.293-1.697 5.337 1.239-5.461.009.002.251.057.245.08c10.467 3.413 19.463 8.895 25.934 15.865 6.856 7.38 10.66 16.211 10.676 25.524v.062c-.016 9.304-3.819 18.134-10.675 25.516-6.473 6.973-15.47 12.457-25.935 15.869l-.846.276h-.897v-5.6l1.686 5.34-.927.293c-12.545 3.947-46.057 14.692-92.445 29.62-14.943 4.808-23.832 7.671-49.463 15.928-6.364 2.051-11.804 3.804-15.655 5.046l-4.327 1.396-1.133.365-.288.093.496-.198-.3.136-.314.1-.377.12-1.706.544-1.705-.547-.379-.121-.389-.125-1.135-.366-4.328-1.396c-25.618-8.259-52.759-17.002-79.21-25.508-39.416-12.675-67.203-21.577-78.364-25.088l-.919-.291 1.69-5.339-1.239 5.461-.009-.002-.251-.057-.245-.08c-10.463-3.411-19.457-8.894-25.938-15.869-6.854-7.383-10.657-16.213-10.672-25.525v-.062c.016-9.303 3.819-18.133 10.674-25.515 6.478-6.972 15.472-12.454 25.936-15.865l.114-.036-.062.019.928-.294c12.511-3.937 45.718-14.584 92.445-29.62 15.633-5.03 30.431-9.796 49.465-15.93l15.659-5.046 4.327-1.395 1.493-.481.372-.122z" id="Clip-2-Copy" fill="#657037"/><path d="M203.499 25l-.372.122s-8.426 2.716-21.507 6.931c-13.086 4.217-30.827 9.934-49.467 15.931-37.276 11.995-78.145 25.121-92.479 29.631l-.919.291-.007.002c-9.616 3.135-17.782 8.123-23.569 14.353-5.77 6.213-9.163 13.683-9.177 21.713v.053c.013 8.03 3.407 15.5 9.177 21.715 5.788 6.229 13.953 11.22 23.569 14.355l.009.002.919.291c25.087 7.891 131.416 42.162 157.603 50.605 3.741 1.208 5.848 1.886 5.848 1.886l.374.12.377-.12c.004-.002 2.105-.677 5.846-1.886 3.741-1.206 9.118-2.94 15.659-5.047 13.084-4.215 30.825-9.932 49.465-15.929 37.28-11.997 78.145-25.121 92.479-29.631l.921-.291h.007c9.616-3.135 17.784-8.125 23.567-14.355 5.772-6.215 9.165-13.685 9.179-21.715v-.053c-.013-8.03-3.407-15.5-9.179-21.713-5.783-6.229-13.951-11.218-23.567-14.353l-.009-.002-.921-.293c-25.084-7.893-131.414-42.165-157.601-50.607-3.741-1.204-5.841-1.882-5.846-1.884l-.379-.122zm-.748-2.28l.741-.243.743.239.379.122.131.042.125.057c-.228-.093-.228-.093.135.027l1.132.365 4.324 1.393c25.574 8.245 52.756 17.001 79.212 25.509 39.423 12.678 67.212 21.581 78.379 25.095l.921.293-.727 2.287.531-2.341.009.002.213.059c9.97 3.251 18.497 8.447 24.581 15.001 6.33 6.814 9.806 14.883 9.821 23.346v.057c-.014 8.459-3.49 16.528-9.82 23.344-6.086 6.555-14.613 11.754-24.582 15.003l-.363.118h-.388v-2.4l.723 2.289-.924.292c-12.554 3.95-46.068 14.696-92.464 29.626-14.943 4.808-23.832 7.671-49.464 15.929-6.364 2.051-11.804 3.804-15.657 5.047l-4.326 1.396-1.133.365c-.364.12-.364.12-.134.027l-.128.058-.134.043-.377.12-.731.233-.731-.234-.376-.121-.388-.125-1.134-.365-4.327-1.396c-25.618-8.259-52.761-17.002-79.213-25.509-39.424-12.678-67.213-21.58-78.378-25.093l-.919-.291.724-2.288-.531 2.341-.009-.002-.213-.059c-9.966-3.249-18.492-8.446-24.584-15.004-6.328-6.817-9.804-14.886-9.818-23.348v-.057c.014-8.458 3.49-16.528 9.818-23.342 6.09-6.555 14.616-11.751 24.632-15.016l-.023.007.923-.292c12.521-3.94 45.729-14.587 92.464-29.626 15.633-5.03 30.432-9.797 49.466-15.931l15.659-5.046 4.327-1.395 1.509-.486.372-.122z" fill="#2E3A33"/></g><g><path d="M121.917 128.57h-16.578c-.308.761-.673 1.215-.673 1.215h18.997l1.181-7.366s-.937.589-2.096.952l-.831 5.199z" id="Fill-1" fill="#B2BB1D"/><path d="M111.284 108.078c0 1.648 1.474 3.053 1.596 3.093-.122.054-1.596 1.447-1.596 3.094v8.171h1.748v-6.956c0-1.647 1.475-3.04 1.597-3.094-.121-.04-1.597-1.446-1.597-3.093v-7.702c0-2.035.98-3.308.98-3.308h-2.363c-.197.544-.365 1.253-.365 2.094v7.701z" fill="#B2BB1D"/><path d="M150.838 126.436l-2.144-10.689c-.324-1.62.844-3.281.95-3.363-.119-.012-1.863-1.097-2.185-2.718l-1.636-8.13c-.402-2.009.417-3.254.417-3.254h-2.184c-.104.532-.144 1.222.019 2.04l1.637 8.13c.32 1.62 2.065 2.705 2.184 2.718-.108.08-1.274 1.742-.95 3.363l2.144 10.688c.388 1.955 1.863 3.348 1.863 3.348h-7.366c-.127.766-.378 1.215-.378 1.215h9.491s-1.475-1.394-1.863-3.349" fill="#B2BB1D"/><path fill="#B2BB1D" d="M138.19 105.078l-.093-1.62-.082 1.633-1.62 10.702h1.931l.762-5.026z"/><path d="M135.134 121.913l-.723 3.617c-.228 1.139-.109 2.263.415 3.04h-6.816c-.481.758-.956 1.215-.956 1.215h9.52c-.524-.778-.643-1.902-.416-3.04l.723-3.617h4.475l-.243-1.215h-5.978z" fill="#B2BB1D"/><path d="M160.619 105.626c0 1.253 1.24 2.232 2.474 2.82-.436-.463-.725-1.002-.725-1.605 0-1.968 2.064-2.771 4.515-2.812 2.373-.04 4.678 1.056 6.193 1.976-.125-.104-3.943-3.256-7.939-3.19-2.454.04-4.517.843-4.517 2.812" fill="#B2BB1D"/><path d="M172.793 112.635c1.617 1.451 2.424 3.451 2.424 6.573 0 5.264-4.584 10.046-11.582 10.046-4.774 0-5.109-1.126-6.97-1.126-.414 0-.788.068-1.122.171v2.289s1.086-1.246 2.87-1.246c1.863 0 2.197 1.126 6.973 1.126 6.997 0 11.582-4.782 11.582-10.046 0-4.096-1.386-6.266-4.173-7.788" fill="#B2BB1D"/><path d="M169.842 110.837l.193.089c-.601-.672-.839-1.331-.83-1.405-.036.045-.35.183-.796.32.359.371.828.736 1.433.997" fill="#B2BB1D"/><path d="M164.559 116.503c-.915-.329-1.933-.149-2.625.068.642.714.937 1.489.929 1.561.091-.094 1.915-.965 3.444-.415.33.12.64.24.926.365-.521-.704-1.466-1.14-2.674-1.579" fill="#B2BB1D"/><path d="M159.036 114.467c-.364-.178-.718-.366-1.065-.565.677.572 1.436 1.061 2.246 1.491-.308-.351-.699-.69-1.181-.926" fill="#B2BB1D"/><path d="M174.834 107.229v-9.322s-.902.586-1.748.756v7.348c1.073.653 1.748 1.217 1.748 1.217" fill="#B2BB1D"/><path d="M155.542 119.699v.558c.374.288.817.583 1.322.867-.906-.782-1.322-1.425-1.322-1.425" fill="#B2BB1D"/><path d="M201.016 98.283l1.042 6.166s-2.024-1.246-3.767-1.246h-5.376v4.876c0 1.647 1.476 3.053 1.595 3.093-.119.054-1.595 1.381-1.595 2.974v11.13c0 2.023 1.141 3.295 1.141 3.295h-7.095c-.324.773-.717 1.215-.717 1.215h9.561s-1.142-1.273-1.142-3.296v-11.129c0-1.594 1.477-2.92 1.596-2.975-.119-.04-1.596-1.445-1.596-3.093v-4.875h5.378c1.743 0 3.767 1.246 3.767 1.246l-1.247-7.38h-1.543z" fill="#B2BB1D"/><path d="M180.258 103.202c-.548 0-1.122.123-1.654.292l-.365 2.169s2.024-1.246 3.765-1.246h3.628v-1.215h-5.375z" fill="#B2BB1D"/><path d="M221.537 104.417h2.011c.616 0 1.222.086 1.782.277-.851-1.085-2.168-1.491-3.53-1.491h-2.01v9.442h1.747v-8.228z" fill="#B2BB1D"/><path d="M234.985 106.078c-.492-2.619-1.74-5.087-4.483-6.52 1.556 1.428 2.362 3.323 2.735 5.305.335 1.795 1.567 3.068 1.69 3.107-.123.054-1.381 1.366-1.783 2.866-1.033 3.845-3.982 7.942-10.98 7.942h-2.374v6.496c0 2.01 1.125 3.296 1.125 3.296h-7.07c-.307.76-.671 1.215-.671 1.215h9.491s-1.127-1.286-1.127-3.296v-6.496h2.374c6.999 0 9.948-4.098 10.98-7.942.402-1.5 1.661-2.813 1.783-2.866-.122-.04-1.355-1.313-1.689-3.107" fill="#B2BB1D"/><path d="M247.605 109.292v-7.702c0-2.022 1.139-3.307 1.139-3.307h-2.461c-.231.545-.426 1.254-.426 2.094v7.701c0 1.648 1.473 3.053 1.593 3.094-.12.054-1.593 1.473-1.593 3.068v11.036c0 2.023 1.139 3.295 1.139 3.295h-7.094c-.324.773-.717 1.215-.717 1.215h9.56s-1.139-1.273-1.139-3.296v-11.035c0-1.594 1.475-3.015 1.593-3.069-.119-.04-1.593-1.445-1.593-3.093" fill="#B2BB1D"/><path d="M271.23 128.517c-.938 0-2.024.589-6.167.589-2.473 0-4.793-.508-6.791-1.628 2.331 1.977 5.304 2.843 8.538 2.843 4.144 0 5.23-.589 6.168-.589 1.354 0 2.05.83 2.05.83v-10.166c-.463.693-.974 1.38-1.748 1.952v6.999s-.697-.83-2.05-.83" fill="#B2BB1D"/><path d="M265.8 103.042c-2.266 0-4.907.991-6.074 4.581-.616 1.902.804 3.508.925 3.549-.121.054-1.689 1.461-1.581 3.028.334 4.858 2.094 6.997 4.076 7.852-1.19-1.235-2.096-3.29-2.329-6.638-.106-1.567 1.462-2.973 1.584-3.027-.121-.04-1.542-1.646-.926-3.548 1.166-3.59 3.807-4.581 6.074-4.581 2.122 0 3.586.307 4.66.791-1.108-1.132-2.824-2.005-6.408-2.005" fill="#B2BB1D"/><path d="M273.28 98.274v7.399c.773.572 1.285 1.26 1.747 1.959v-10.166s-.597.697-1.747.808" fill="#B2BB1D"/><path d="M285.687 117.226v8.049c0 2.01 1.125 3.295 1.125 3.295h-7.072c-.306.761-.673 1.215-.673 1.215h9.493s-1.127-1.285-1.127-3.295v-8.049l1.178-1.749-.914-2.453-2.011 2.987z" fill="#B2BB1D"/><path d="M301.887 127.561l-7.696-19.073 5.47-8.09c.483-.71 2.012-1.648 2.788-2.116h-3.587c-.405.308-.759.622-.949.901l-5.47 8.09 7.696 19.073c.335.817 1.595 1.768 2.265 2.224h-8.305c-.141.424-.475.905-.684 1.215h10.737c-.67-.456-1.929-1.406-2.265-2.224" fill="#B2BB1D"/><path d="M285.687 106.658l1.747-2.674v-2.34c0-1.968 1.087-3.361 1.087-3.361h-2.407c-.227.568-.427 1.303-.427 2.147v6.229z" fill="#B2BB1D"/><path d="M323.362 128.57h-16.575c-.307.761-.674 1.215-.674 1.215h18.999l1.179-7.366s-.937.589-2.095.952l-.834 5.199z" fill="#B2BB1D"/><path d="M312.732 108.078c0 1.648 1.475 3.053 1.594 3.093-.119.054-1.594 1.447-1.594 3.094v8.171h1.749v-6.956c0-1.647 1.474-3.04 1.593-3.094-.119-.04-1.593-1.446-1.593-3.093v-7.702c0-2.035.978-3.308.978-3.308h-2.363c-.197.544-.364 1.253-.364 2.094v7.701z" fill="#B2BB1D"/><path d="M340.751 114.131h-5.376v8.305h1.748v-7.09h5.378c1.232 0 2.628.831 2.628.831v-7.835s-.767.539-1.748.768v5.852s-1.394-.831-2.628-.831" fill="#B2BB1D"/><path d="M342.386 103.202h-7.011v4.795h1.748v-3.58h7.012c1.863 0 3.259 1.137 3.259 1.137v-7.272h-1.749v6.057s-1.395-1.137-3.259-1.137" fill="#B2BB1D"/><path d="M346.893 123.371l-.832 5.199h-16.632c-.307.761-.671 1.215-.671 1.215h19.05l1.179-7.366s-.936.589-2.095.952" fill="#B2BB1D"/><path d="M122.748 123.371c-.516.162-1.076.28-1.619.28h-8.098v-1.215h-1.748v-8.17c0-1.648 1.475-3.04 1.596-3.094-.121-.04-1.596-1.446-1.596-3.094v-7.701c0-.841.168-1.55.365-2.094h-7.035s1.139 1.273 1.139 3.308v7.702c0 1.647-1.475 3.053-1.594 3.093.119.054 1.594 1.501 1.594 3.095v11.009c0 .821-.191 1.531-.413 2.081h16.578l.831-5.199z" fill="#052722"/><path d="M143.545 126.543l-.684-3.416h-1.505l.442 2.201c.388 1.956-.336 3.242-.336 3.242h2.125c.09-.535.117-1.223-.042-2.027" fill="#052722"/><path d="M138.142 117.007l.184-1.215h-1.93l1.62-10.702.082-1.633.093 1.62.898 5.689.675-4.462.082-1.634.093 1.621 1.691 10.715h-3.487zm10.949 8.215l-2.144-10.688c-.323-1.621.843-3.282.95-3.363-.119-.013-1.864-1.098-2.184-2.718l-1.637-8.13c-.163-.818-.124-1.508-.019-2.04h-10.539s.816 1.245.415 3.254l-1.636 8.143c-.309 1.541-2.078 2.692-2.184 2.705.106.082 1.272 1.742.952 3.35l-2.159 10.702c-.173.836-.536 1.569-.895 2.134h6.817c-.525-.777-.644-1.901-.416-3.04l.723-3.617h5.978l.243 1.214h1.505l.684 3.416c.16.804.132 1.493.043 2.027h7.365s-1.475-1.394-1.863-3.348z" fill="#052722"/><path d="M171.591 112.051c.427.185.826.379 1.203.584-.745-.669-1.666-1.222-2.759-1.71.371.415.88.835 1.556 1.126" fill="#052722"/><path d="M165.745 110.029c.784.261 1.911.04 2.664-.189-.689-.716-.961-1.456-.952-1.534-.095.12-2.212.924-3.459.509-.288-.097-.596-.221-.905-.368.695.74 1.771 1.286 2.653 1.583" fill="#052722"/><path d="M160.785 115.681l-.568-.288c.62.703.906 1.454.898 1.526.035-.038.355-.201.819-.347-.303-.338-.684-.662-1.149-.891" fill="#052722"/><path d="M163.634 129.254c6.999 0 11.583-4.782 11.583-10.046 0-3.121-.808-5.122-2.424-6.573-.376-.205-.775-.399-1.202-.584-.676-.291-1.185-.711-1.556-1.126l-.193-.089c-.605-.261-1.074-.625-1.433-.997-.753.229-1.88.45-2.664.189-.882-.296-1.957-.842-2.653-1.583-1.233-.589-2.473-1.567-2.473-2.82 0-1.968 2.062-2.771 4.516-2.812 3.996-.066 7.814 3.086 7.94 3.19l.011.007v-7.347c-.144.029-.286.047-.422.047-.953 0-3.648-.938-6.49-.938-5.363 0-11.128 3.457-11.128 9.537 0 3.074 1.181 5.115 2.925 6.592.346.2.701.388 1.065.565.482.237.873.576 1.181.926l.568.288c.465.228.846.552 1.15.89.692-.218 1.71-.397 2.625-.068 1.207.438 2.153.874 2.674 1.578 1.349.585 2.198 1.285 2.198 2.676 0 2.316-2.266 3.16-4.329 3.16-4.188 0-6.819-1.569-8.238-2.794-.505-.283-.947-.579-1.322-.867v8.042c.334-.103.708-.171 1.122-.171 1.861 0 2.197 1.126 6.97 1.126" fill="#052722"/><path d="M192.914 125.275v-11.13c0-1.593 1.476-2.919 1.595-2.974-.119-.04-1.595-1.446-1.595-3.093v-4.876h5.376c1.744 0 3.768 1.246 3.768 1.246l-1.043-6.166h-21.529l-.882 5.212c.533-.169 1.106-.292 1.654-.292h5.375v1.215h1.749v4.875c0 1.648-1.475 3.053-1.594 3.093.119.055 1.594 1.448 1.594 3.095v11.009c0 .834-.194 1.539-.422 2.081h7.095s-1.141-1.272-1.141-3.295" fill="#052722"/><path d="M219.79 103.202h2.011c1.361 0 2.679.406 3.529 1.491 1.527.519 2.698 1.836 2.698 4.491 0 3.549-2.212 4.675-4.412 4.675h-2.079v-1.215h-1.747v-9.442zm0 22.073v-6.496h2.374c6.998 0 9.946-4.097 10.98-7.942.402-1.5 1.661-2.812 1.783-2.866-.123-.04-1.355-1.312-1.69-3.107-.373-1.982-1.179-3.877-2.735-5.306-1.525-.795-3.501-1.275-6.081-1.275h-11.303s1.141 1.273 1.141 3.307v7.702c0 1.648-1.477 3.053-1.595 3.093.119.054 1.595 1.434 1.595 3.027v11.076c0 .821-.192 1.532-.415 2.081h7.07s-1.125-1.286-1.125-3.295z" fill="#052722"/><path d="M245.857 125.275v-11.036c0-1.594 1.473-3.013 1.593-3.068-.12-.04-1.593-1.446-1.593-3.093v-7.702c0-.839.195-1.548.426-2.094h-7.098s1.141 1.285 1.141 3.308v7.702c0 1.648-1.475 3.053-1.595 3.093.119.055 1.595 1.448 1.595 3.095v11.009c0 .834-.194 1.539-.424 2.081h7.094s-1.139-1.272-1.139-3.295" fill="#052722"/><path d="M272.978 98.296c-.938 0-2.024-.603-6.168-.603-5.845 0-11.582 2.88-13.097 11.599-.269 1.54-1.812 3.093-1.812 3.093s1.356 1.488 1.448 3.134c.341 5.791 2.19 9.639 4.923 11.958 1.998 1.121 4.318 1.628 6.791 1.628 4.142 0 5.228-.589 6.167-.589 1.353 0 2.05.83 2.05.83v-6.999c-1.123.834-2.803 1.423-5.733 1.423-1.464 0-3.1-.371-4.402-1.721-1.983-.854-3.742-2.993-4.076-7.851-.108-1.567 1.46-2.974 1.582-3.027-.121-.04-1.541-1.646-.926-3.549 1.166-3.59 3.808-4.581 6.074-4.581 3.584 0 5.299.873 6.407 2.005.411.185.762.395 1.073.625v-7.399l-.302.022" fill="#052722"/><path d="M300.139 126.347l-7.696-19.073 5.47-8.09c.19-.279.544-.593.949-.901h-6.736c.255.415.712 1.326.363 1.862l-5.055 7.728v-3.888l-1.747 2.673v-6.229c0-.843.199-1.579.427-2.147h-7.1s1.141 1.285 1.141 3.308v7.621c0 1.648-1.476 3.134-1.595 3.173.119.055 1.595 1.421 1.595 3.002v11.103c0 .821-.192 1.531-.414 2.081h7.072s-1.125-1.286-1.125-3.296v-8.049l2.011-2.987.914 2.453.835-1.238 4.691 12.577c.056.15.029.34-.038.54h8.305c-.67-.456-1.929-1.406-2.265-2.224" fill="#052722"/><path d="M324.196 123.371c-.517.162-1.078.28-1.618.28h-8.097v-1.215h-1.749v-8.17c0-1.648 1.475-3.04 1.594-3.094-.119-.04-1.594-1.446-1.594-3.094v-7.701c0-.841.167-1.55.364-2.094h-7.037s1.141 1.273 1.141 3.308v7.702c0 1.647-1.475 3.053-1.595 3.093.12.054 1.595 1.501 1.595 3.095v11.009c0 .821-.191 1.531-.413 2.081h16.575l.834-5.199z" fill="#052722"/><path d="M346.893 123.371c-.516.162-1.078.28-1.62.28h-8.151v-1.215h-1.748v-8.305h5.376c1.235 0 2.628.831 2.628.831v-5.851c-.263.061-.541.102-.825.102h-5.431v-1.215h-1.748v-4.795h7.011c1.864 0 3.259 1.137 3.259 1.137v-6.058h-16.94s1.139 1.3 1.139 3.308v7.702c0 1.647-1.475 3.053-1.596 3.093.121.054 1.596 1.447 1.596 3.095v11.009c0 .821-.191 1.531-.414 2.081h16.632l.832-5.199z" fill="#052722"/><path d="M84.867 108.048v-3.173c0-.825-.466-1.352-.466-1.352h7.67v2.985s-.568-.468-1.331-.468h-2.881v2.899c.384-.566.889-.787 1.484-.792 1.148-.016 2.544.596 3.546-.198.258 1.27-.507 2.606-1.882 2.606-.989 0-2.131-.567-3.148-.088v3.471h3.344c.721 0 1.525-.513 1.525-.513l-.485 3.029h-7.822s.444-.549.444-1.353v-4.518c0-.677-.603-1.25-.651-1.271.049-.018.651-.609.651-1.264" fill="#B2BB1D"/><path d="M68.982 113.845v6.726c0 1.223.691 1.991.691 1.991h-5.779s.69-.768.69-1.991v-6.652c0-.999-.893-1.84-.966-1.871.073-.025.966-.876.966-1.871v-2.946h-3.25c-1.056 0-2.276.753-2.276.753l.75-4.461h17.346s-.472.528-.472 1.358v3.128h3.11v-3.128c0-.83-.468-1.358-.468-1.358h3.927s-.468.528-.468 1.358v3.177c0 .656.603 1.237.653 1.255-.05.021-.653.593-.653 1.27v4.518c0 .831.468 1.353.468 1.353h-3.927s.468-.522.468-1.353v-4.574h-3.11v4.574c0 .831.472 1.353.472 1.353h-3.926s.468-.522.468-1.353v-7.165c-.082-.123-.516-.706-1.465-.706h-3.248v2.946c0 .996.894 1.847.963 1.871-.069.03-.963.832-.963 1.797" fill="#B2BB1D"/><path d="M87.769 122.387c-1.972 0-11.372-1.114-13.334-1.114-1.373 0-2.577 1.086-2.577 1.086 1.192-3.126 3.51-3.976 5.767-3.976 1.432 0 12.568 1.091 13.429 1.091 1.53 0 2.188-.85 2.188-.85s.119 3.762-5.473 3.762" fill="#B2BB1D"/><path d="M121.129 123.651c.542 0 1.103-.118 1.619-.28l.346-2.167s-1.956 1.232-3.712 1.232h-6.35v1.215h8.097z" fill="#324037"/><path d="M105.752 115.48c0-1.593-1.475-3.04-1.594-3.095.119-.04 1.594-1.445 1.594-3.093v-7.702c0-2.035-1.139-3.308-1.139-3.308h7.035c.278-.774.616-1.215.616-1.215h-9.399s1.139 1.272 1.139 3.308v7.702c0 1.647-1.475 3.053-1.593 3.093.118.054 1.593 1.5 1.593 3.094v11.009c0 1.955-1.086 3.295-1.086 3.295h2.421c.222-.55.413-1.261.413-2.081v-11.009z" fill="#324037"/><path d="M131.064 115.735c.32-1.607-.845-3.268-.952-3.349.106-.013 1.876-1.164 2.184-2.705l1.636-8.144c.401-2.009-.415-3.254-.415-3.254h10.539c.15-.775.436-1.215.436-1.215h-12.723s.817 1.246.416 3.254l-1.636 8.144c-.309 1.541-2.078 2.692-2.184 2.705.106.08 1.274 1.742.952 3.349l-2.159 10.702c-.403 1.955-1.852 3.349-1.852 3.349h2.704c.359-.565.723-1.298.895-2.134l2.159-10.702z" fill="#324037"/><path fill="#324037" d="M139.845 104.671l-.082 1.634-.675 4.462.792 5.026h-1.554l-.184 1.215h3.487l-1.691-10.715z"/><path d="M153.794 118.485v10.889s.642-.734 1.748-1.074v-8.042c-1.205-.931-1.748-1.773-1.748-1.773" fill="#324037"/><path d="M169.431 120.758c0-1.392-.849-2.092-2.198-2.676.289.39.45.86.45 1.462 0 2.316-2.265 3.16-4.33 3.16-2.85 0-4.97-.729-6.489-1.58 1.419 1.225 4.05 2.794 8.237 2.794 2.064 0 4.329-.844 4.329-3.16" fill="#324037"/><path d="M155.046 107.31c0-6.08 5.766-9.537 11.128-9.537 2.842 0 5.538.938 6.49.938.136 0 .278-.018.422-.047v-1.971s-1.233.804-2.17.804c-.953 0-3.648-.938-6.49-.938-5.363 0-11.128 3.455-11.128 9.537 0 4.018 2.018 6.272 4.674 7.806-1.745-1.476-2.926-3.518-2.926-6.592" fill="#324037"/><path d="M201.016 98.283l-.205-1.215h-23.075l-1.246 7.38s.953-.587 2.114-.954l.882-5.212h21.53z" fill="#324037"/><path d="M187.382 115.48c0-1.648-1.475-3.04-1.594-3.095.119-.04 1.594-1.445 1.594-3.093v-4.875h-1.748v3.661c0 1.647-1.474 3.053-1.594 3.093.12.054 1.594 1.447 1.594 3.094v11.009c0 2.023-1.139 3.295-1.139 3.295h2.465c.228-.542.422-1.246.422-2.081v-11.009z" fill="#324037"/><path d="M221.868 112.645h-.331v1.215h2.079c2.199 0 4.412-1.126 4.412-4.675 0-2.655-1.171-3.973-2.698-4.491.584.742.949 1.801.949 3.276 0 3.55-2.212 4.674-4.411 4.674" fill="#324037"/><path d="M214.259 115.413c0-1.593-1.476-2.973-1.595-3.027.119-.04 1.595-1.446 1.595-3.093v-7.702c0-2.035-1.141-3.308-1.141-3.308h11.303c2.58 0 4.556.48 6.081 1.276-1.642-1.506-4.119-2.49-7.829-2.49h-11.302s1.139 1.272 1.139 3.309v7.701c0 1.648-1.476 3.053-1.595 3.094.119.054 1.595 1.434 1.595 3.027v11.076c0 1.956-1.086 3.296-1.086 3.296h2.42c.223-.55.415-1.261.415-2.081v-11.076z" fill="#324037"/><path d="M240.325 115.48c0-1.648-1.475-3.04-1.595-3.095.12-.04 1.595-1.445 1.595-3.093v-7.702c0-2.022-1.141-3.308-1.141-3.308h7.099c.323-.772.712-1.215.712-1.215h-9.56s1.141 1.285 1.141 3.308v7.702c0 1.647-1.477 3.053-1.596 3.093.119.054 1.596 1.447 1.596 3.094v11.009c0 2.023-1.141 3.295-1.141 3.295h2.466c.229-.542.423-1.246.423-2.081v-11.009z" fill="#324037"/><path d="M253.35 115.52c-.093-1.647-1.448-3.134-1.448-3.134s1.543-1.553 1.812-3.093c1.514-8.72 7.251-11.599 13.097-11.599 4.144 0 5.23.603 6.168.603l.302-.022v-2.023s-.697.831-2.05.831c-.939 0-2.025-.603-6.167-.603-5.847 0-11.585 2.879-13.099 11.599-.269 1.54-1.811 3.093-1.811 3.093s1.354 1.488 1.448 3.134c.408 6.953 2.991 11.107 6.671 13.172-2.733-2.318-4.582-6.166-4.923-11.958" fill="#324037"/><path d="M267.548 123.771c2.93 0 4.61-.59 5.733-1.423v-3.167c-1.139 1.7-2.533 3.374-7.48 3.374-.859 0-1.778-.128-2.654-.506 1.301 1.349 2.938 1.721 4.402 1.721" fill="#324037"/><path d="M273.28 106.416v-.743c-.311-.23-.662-.441-1.072-.626.422.43.76.898 1.072 1.37" fill="#324037"/><path d="M280.154 115.386c0-1.58-1.476-2.946-1.595-3.001.119-.04 1.595-1.526 1.595-3.173v-7.622c0-2.023-1.141-3.308-1.141-3.308h7.1c.304-.758.657-1.215.657-1.215h-9.505s1.14 1.285 1.14 3.309v7.621c0 1.648-1.475 3.134-1.594 3.174.119.054 1.594 1.419 1.594 3v11.103c0 1.956-1.086 3.296-1.086 3.296h2.42c.223-.55.415-1.261.415-2.081v-11.103z" fill="#324037"/><path d="M294.137 128.031l-4.691-12.576-.835 1.237 3.777 10.124c.175.469-.415 1.299-.723 1.755h2.433c.067-.2.094-.39.038-.54" fill="#324037"/><path d="M292.489 100.145c.35-.536-.108-1.447-.363-1.862h6.736c.623-.473 1.368-.931 1.839-1.215h-10.323c.254.415.71 1.327.362 1.861l-3.306 5.056v3.888l5.055-7.728z" fill="#324037"/><path d="M307.2 115.48c0-1.593-1.475-3.04-1.595-3.095.121-.04 1.595-1.445 1.595-3.093v-7.702c0-2.035-1.141-3.308-1.141-3.308h7.037c.28-.774.616-1.215.616-1.215h-9.399s1.141 1.272 1.141 3.308v7.702c0 1.647-1.476 3.053-1.597 3.093.121.054 1.597 1.5 1.597 3.094v11.009c0 1.955-1.087 3.295-1.087 3.295h2.421c.222-.55.413-1.261.413-2.081v-11.009z" fill="#324037"/><path d="M322.578 123.651c.54 0 1.101-.118 1.618-.28l.347-2.167s-1.957 1.232-3.714 1.232h-6.348v1.215h8.096z" fill="#324037"/><path d="M342.554 109.212c.284 0 .562-.041.825-.102v-1.983s-1.234.87-2.573.87h-3.683v1.215h5.431z" fill="#324037"/><path d="M345.273 123.651c.542 0 1.104-.118 1.62-.28l.346-2.167s-1.956 1.232-3.715 1.232h-6.402v1.215h8.15z" fill="#324037"/><path d="M329.843 115.48c0-1.648-1.475-3.04-1.596-3.095.121-.04 1.596-1.445 1.596-3.093v-7.702c0-2.008-1.139-3.308-1.139-3.308h16.94v-1.215h-18.688s1.139 1.3 1.139 3.308v7.702c0 1.647-1.474 3.053-1.595 3.093.121.054 1.595 1.447 1.595 3.094v11.009c0 1.955-1.086 3.295-1.086 3.295h2.42c.223-.55.414-1.261.414-2.081v-11.009z" fill="#324037"/></g><g fill="#AAB52A"><path d="M213 147h2.304c.535 0 1.011.073 1.43.219.418.146.771.35 1.058.613.287.263.506.576.657.939.151.363.226.761.226 1.196v.017c0 .434-.077.836-.23 1.204-.154.369-.376.687-.666.956-.29.269-.646.479-1.067.63-.421.151-.902.227-1.442.227h-2.27v-6zm2.33 4.526c.501 0 .9-.131 1.199-.394.299-.263.448-.637.448-1.123v-.017c0-.486-.149-.86-.448-1.123-.299-.263-.698-.394-1.199-.394h-.674v3.051h.674z"/><path d="M213.8 155.8h5.6v-1.6h-6.3999999999999995v1.6z"/><path d="M183.075 147.04h6.758v1.754h-4.8v1.818h4.224v1.754h-4.224v1.882h4.864v1.754h-6.822v-8.96zm13.47 9.088c-.683 0-1.353-.117-2.01-.352-.657-.235-1.254-.595-1.792-1.082l1.165-1.395c.41.333.83.597 1.261.794.431.196.902.294 1.414.294.41 0 .727-.075.954-.224.226-.149.339-.356.339-.621v-.026c0-.128-.023-.241-.07-.339-.047-.098-.137-.19-.269-.275-.132-.085-.316-.171-.55-.256-.235-.085-.54-.175-.915-.269-.452-.119-.862-.245-1.229-.378-.367-.132-.678-.299-.934-.499-.256-.201-.454-.45-.595-.749-.141-.299-.211-.67-.211-1.114v-.026c0-.41.077-.779.23-1.107.154-.329.369-.612.646-.851s.608-.422.992-.55c.384-.128.806-.192 1.267-.192.657 0 1.261.098 1.811.294.55.196 1.056.478 1.517.845l-1.024 1.485c-.401-.273-.794-.489-1.178-.646-.384-.158-.768-.237-1.152-.237-.384 0-.672.075-.864.224-.192.149-.288.335-.288.557v.026c0 .145.028.271.083.378.055.107.156.203.301.288.145.085.343.166.595.243.252.077.57.166.954.269.452.119.855.254 1.21.403.354.149.653.329.896.538.243.209.427.454.55.736.124.282.186.619.186 1.011v.026c0 .444-.081.838-.243 1.184-.162.346-.388.636-.678.87-.29.235-.636.414-1.037.538-.401.124-.845.186-1.331.186zm8.798-7.27h-2.726v-1.818h7.424v1.818h-2.726v7.142h-1.971v-7.142z"/><path d="M182.706 170.643l3.355-2.75c.317-.259.586-.492.806-.698.221-.206.401-.403.54-.59.139-.187.24-.37.302-.547.062-.178.094-.372.094-.583 0-.432-.125-.758-.374-.979-.25-.221-.576-.331-.979-.331-.394 0-.742.11-1.044.331-.302.221-.641.562-1.015 1.022l-1.555-1.253c.25-.336.502-.634.756-.893s.528-.478.821-.655c.293-.178.617-.312.972-.403.355-.091.758-.137 1.21-.137.518 0 .991.074 1.418.223.427.149.792.358 1.094.626.302.269.538.595.706.979.168.384.252.811.252 1.282v.029c0 .422-.055.799-.166 1.13-.11.331-.274.643-.49.936-.216.293-.49.586-.821.878-.331.293-.722.612-1.174.958l-1.642 1.267h4.392v1.915h-7.459v-1.757zm15.427 1.93c-.672 0-1.284-.132-1.836-.396s-1.022-.629-1.411-1.094c-.389-.466-.689-1.015-.9-1.649-.211-.634-.317-1.315-.317-2.045v-.029c0-.73.108-1.411.324-2.045.216-.634.521-1.186.914-1.656.394-.47.866-.84 1.418-1.109.552-.269 1.164-.403 1.836-.403.662 0 1.27.132 1.822.396s1.022.629 1.411 1.094c.389.466.691 1.015.907 1.649.216.634.324 1.315.324 2.045v.029c0 .73-.108 1.411-.324 2.045-.216.634-.521 1.186-.914 1.656-.394.47-.866.84-1.418 1.109-.552.269-1.164.403-1.836.403zm.029-2.002c.336 0 .638-.079.907-.238.269-.158.499-.379.691-.662.192-.283.338-.619.439-1.008.101-.389.151-.814.151-1.274v-.029c0-.461-.053-.886-.158-1.274-.106-.389-.257-.727-.454-1.015-.197-.288-.43-.514-.698-.677-.269-.163-.571-.245-.907-.245-.326 0-.626.079-.9.238-.274.158-.504.379-.691.662-.187.283-.334.619-.439 1.008-.106.389-.158.814-.158 1.274v.029c0 .461.053.888.158 1.282.106.394.254.732.446 1.015.192.283.425.506.698.67.274.163.578.245.914.245zm9.725-6.077l-1.757.432-.461-1.814 2.894-.864h1.512v10.152h-2.189v-7.906zm7.997 0l-1.757.432-.461-1.814 2.894-.864h1.512v10.152h-2.189v-7.906z"/></g><g><g transform="translate(101)"><use fill="#AAB52A" xlink:href="#b"/><use fill="#000" filter="url(#c)" xlink:href="#b"/><use stroke="#062822" stroke-width=".64" xlink:href="#b"/></g><g transform="translate(101)"><use fill="#F9F6EF" xlink:href="#a"/><use fill="#000" filter="url(#d)" xlink:href="#a"/><use stroke="#062822" mask="url(#e)" stroke-width="3.84" xlink:href="#a"/></g><path d="M164.973 34.309c-.081.039-.952.94-1.23 1.968-.71 2.64-2.752 5.454-7.586 5.454h-1.642v4.453c0 1.382.775 2.263.775 2.263h-6.553s.749-.917.749-2.263v-7.601c0-1.093-1.02-2.04-1.102-2.077.082-.027 1.102-.992 1.102-2.123v-5.284c0-1.397-.788-2.27-.788-2.27h7.807c4.997 0 6.774 2.553 7.305 5.348.227 1.232 1.083 2.106 1.163 2.132zm-5.96 25.556h-25.642s1.471-1.796 1.471-4.417v-14.761c0-2.139-1.995-4.079-2.163-4.15.167-.054 2.163-1.94 2.163-4.148v-10.325c0-2.73-1.545-4.436-1.545-4.436h12.685s-1.318 1.706-1.318 4.436v10.325c0 2.208 1.991 4.094 2.154 4.148-.163.071-2.154 1.941-2.154 4.15v10.954h10.932c2.37 0 5.011-1.653 5.011-1.653l-1.593 9.877zm-30.731-23.359c-.085.037-1.103.946-1.103 2.04v7.638c0 1.388.788 2.262.788 2.262h-6.605s.788-.874.788-2.262v-7.555c0-1.131-1.019-2.086-1.104-2.123.084-.028 1.104-.993 1.104-2.123v-3.346h-3.716c-1.203 0-2.603.855-2.603.855l.862-5.065h15.941l.862 5.065s-1.398-.855-2.602-.855h-3.715v3.346c0 1.13 1.018 2.095 1.103 2.123z" fill="#062822"/><path d="M155.902 31.038h-1.386v6.479h1.435c1.519 0 3.048-.77 3.048-3.208 0-2.491-1.509-3.271-3.097-3.271" fill="#F9F6EF"/></g></g></svg>