<svg width="32" height="32" viewBox="0 0 32 32" xmlns="http://www.w3.org/2000/svg"><title id="icon-twitter-name">Twitter icon</title><path d="M16 0c-8.859 0-16 7.141-16 16s7.141 16 16 16 16-7.141 16-16-7.141-16-16-16zm9.734 12.484v.594c0 6-4.547 12.922-12.922 12.922-2.547 0-4.953-.703-6.953-2 .328.031.703.078 1.063.078 2.156 0 4.078-.859 5.641-2.078-1.969-.031-3.672-1.266-4.234-3.078.266.047.563.078.859.078.406 0 .813-.031 1.188-.141-2.078-.453-3.641-2.266-3.641-4.484v-.047c.594.344 1.297.563 2.047.563-1.219-.813-2-2.188-2-3.781 0-.813.219-1.594.594-2.297 2.25 2.781 5.625 4.594 9.406 4.781-.078-.328-.109-.703-.109-1.031 0-2.531 2-4.563 4.516-4.563 1.297 0 2.484.563 3.297 1.438 1.031-.219 1.953-.578 2.844-1.109-.328 1.078-1 1.969-1.953 2.531.922-.125 1.813-.375 2.625-.719-.625.891-1.375 1.719-2.266 2.344z" fill="#7D8D39"/></svg>