<svg width="32" height="32" viewBox="0 0 32 32" xmlns="http://www.w3.org/2000/svg"><title id="icon-github-name">Github Icon</title><path d="M16 0c-8.859 0-16 7.188-16 16 0 7.438 5.109 13.734 12 15.516v-3.219c-5.031-1.516-6.375-5.328-6.438-5.484-.047-.188.031-.406.219-.516.141-.109.359-.078.516.078.031 0 2.734 2.656 6.078 2.594.25-.672.656-1.344 1.297-1.828-4.297-.656-7.672-3.172-7.672-7.141 0-1.625.672-3.266 1.859-4.594-.375-1.516-.531-3.375.141-4.734 1.703.141 3.375 1 4.625 1.766 1.047-.25 2.156-.438 3.375-.438 1.219 0 2.328.188 3.375.438 1.25-.766 2.922-1.625 4.625-1.766.672 1.359.484 3.219.141 4.734 1.188 1.328 1.859 2.969 1.859 4.594 0 3.969-3.375 6.484-7.672 7.141 1.344 1.047 1.672 2.891 1.672 4.188v4.188c6.891-1.781 12-8.078 12-15.516 0-8.813-7.188-16-16-16z" fill="#7D8D39"/></svg>