<svg width="32" height="32" viewBox="0 0 32 32" xmlns="http://www.w3.org/2000/svg"><title id="icon-linkedin-name">LinkedIn icon</title><path d="M16 0c-8.859 0-16 7.141-16 16s7.141 16 16 16 16-7.141 16-16-7.141-16-16-16zm-6.672 10.672h-.031c-1.594 0-2.625-1.047-2.625-2.344 0-1.328 1.063-2.328 2.656-2.328 1.641 0 2.641 1 2.672 2.328 0 1.297-1.031 2.344-2.672 2.344zm2 13.328h-4v-11.328h4v11.328zm14.672 0h-4v-6c0-2.031-.813-2.672-2.031-2.672-1.234 0-1.969 1.047-1.969 2.672v6h-4v-8.672s-.078-2.219-.109-2.656h3.969l.141 1.734c.516-1.438 1.703-2.406 3.328-2.406 2.859 0 4.672 2.328 4.672 6v6z" fill="#7D8D39"/></svg>