<svg viewBox="0 0 336 139" xmlns="http://www.w3.org/2000/svg" xmlns:xlink="http://www.w3.org/1999/xlink"><defs><path d="M23.21 35.836c-7.579 2.465-13.45 6.052-17.612 10.532-4.148 4.468-5.588 11.84-5.598 17.614.01 5.812 1.45 13.184 5.598 17.653 4.161 4.479 10.032 8.068 16.946 10.322 18.704 5.885 138.456 31.043 138.456 31.043s127.483-27.591 137.789-30.834c7.581-2.464 13.454-6.052 17.612-10.532 4.15-4.469 5.59-11.841 5.6-17.615-.01-5.812-1.45-13.184-5.6-17.652-4.158-4.479-10.031-8.067-16.944-10.321-18.704-5.888-138.458-36.046-138.458-36.046s-127.483 32.592-137.789 35.836z" id="a"/><mask id="b" x="-7" y="-7" width="336" height="137"><path fill="#fff" d="M-7-7h336v137h-336z"/><use xlink:href="#a"/></mask><mask id="c" x="-3" y="-3" width="328" height="129"><path fill="#fff" d="M-3-3h328v129h-328z"/><use xlink:href="#a"/></mask></defs><g transform="translate(7 8)" fill="none"><mask><use xlink:href="#a"/></mask><g><use fill="#fff" xlink:href="#a"/><use stroke="#657037" mask="url(#b)" stroke-width="14" xlink:href="#a"/><use stroke="#2E3A33" mask="url(#c)" stroke-width="6" xlink:href="#a"/></g></g></svg>