<svg width="604" height="73" viewBox="0 0 604 73" xmlns="http://www.w3.org/2000/svg"><title id="icon-tlp-logo-name">The Last Pickel Logo</title><g fill="none"><path d="M131.04 67.933h-34.528c-.64 1.587-1.403 2.533-1.403 2.533h39.567l2.459-15.364s-1.953 1.227-4.364 1.986l-1.731 10.845z" fill="#B2BB1D"/><path d="M108.894 25.191c0 3.436 3.07 6.367 3.324 6.451-.254.114-3.324 3.019-3.324 6.454v17.041h3.64v-14.508c0-3.435 3.073-6.34 3.325-6.454-.253-.084-3.325-3.016-3.325-6.451v-16.064c0-4.245 2.04-6.9 2.04-6.9h-4.921c-.409 1.136-.759 2.613-.759 4.368v16.063z" fill="#B2BB1D"/><path d="M191.277 63.482l-4.466-22.293c-.674-3.38 1.758-6.843 1.98-7.013-.249-.026-3.879-2.289-4.551-5.668l-3.408-16.958c-.836-4.191.867-6.788.867-6.788h-4.548c-.218 1.11-.3 2.548.039 4.254l3.411 16.958c.668 3.38 4.301 5.643 4.55 5.67-.224.168-2.652 3.632-1.98 7.013l4.466 22.292c.808 4.079 3.881 6.984 3.881 6.984h-15.342c-.265 1.598-.786 2.535-.786 2.535h19.769s-3.071-2.906-3.881-6.985" fill="#B2BB1D"/><path fill="#B2BB1D" d="M164.933 18.933l-.195-3.38-.17 3.407-3.374 22.322h4.021l1.588-10.482z"/><path d="M158.569 54.047l-1.507 7.545c-.476 2.375-.227 4.719.865 6.34h-14.196c-1.003 1.58-1.992 2.535-1.992 2.535h19.828c-1.09-1.622-1.339-3.966-.866-6.342l1.507-7.545h9.319l-.507-2.533h-12.452z" fill="#B2BB1D"/><path d="M211.647 20.077c0 2.613 2.584 4.654 5.152 5.882-.908-.967-1.511-2.09-1.511-3.349 0-4.104 4.3-5.781 9.403-5.864 4.941-.082 9.744 2.204 12.897 4.12-.261-.216-8.213-6.792-16.535-6.654-5.11.084-9.407 1.759-9.407 5.864" fill="#B2BB1D"/><path d="M237.004 34.697c3.367 3.025 5.048 7.199 5.048 13.709 0 10.978-9.546 20.954-24.124 20.954-9.942 0-10.641-2.35-14.518-2.35-.862 0-1.642.142-2.338.357v4.775s2.262-2.6 5.976-2.6c3.879 0 4.577 2.35 14.523 2.35 14.573 0 24.122-9.974 24.122-20.952 0-8.542-2.886-13.068-8.691-16.242" fill="#B2BB1D"/><path d="M230.857 30.945l.401.185c-1.251-1.402-1.747-2.775-1.728-2.931-.076.093-.728.383-1.658.666.747.775 1.724 1.534 2.985 2.079" fill="#B2BB1D"/><path d="M219.855 42.764c-1.905-.687-4.025-.311-5.467.142 1.336 1.488 1.951 3.105 1.935 3.257.191-.196 3.989-2.013 7.172-.867.686.25 1.332.5 1.928.761-1.085-1.468-3.054-2.378-5.568-3.293" fill="#B2BB1D"/><path d="M208.351 38.517c-.758-.37-1.496-.762-2.217-1.179 1.409 1.194 2.99 2.213 4.678 3.111-.642-.731-1.457-1.438-2.461-1.932" fill="#B2BB1D"/><path d="M241.254 23.421v-19.442s-1.878 1.222-3.64 1.578v15.326c2.235 1.363 3.64 2.539 3.64 2.539" fill="#B2BB1D"/><path d="M201.073 49.43v1.164c.78.602 1.701 1.217 2.754 1.807-1.886-1.632-2.754-2.971-2.754-2.971" fill="#B2BB1D"/><path d="M295.785 4.761l2.17 12.86s-4.216-2.6-7.847-2.6h-11.198v10.17c0 3.435 3.074 6.367 3.323 6.451-.249.114-3.323 2.879-3.323 6.202v23.214c0 4.219 2.375 6.873 2.375 6.873h-14.777c-.676 1.611-1.493 2.535-1.493 2.535h19.913s-2.38-2.655-2.38-6.874v-23.213c0-3.324 3.075-6.09 3.324-6.205-.249-.082-3.324-3.015-3.324-6.451v-10.169h11.2c3.631 0 7.847 2.598 7.847 2.598l-2.597-15.392h-3.215z" fill="#B2BB1D"/><path d="M252.551 15.022c-1.14 0-2.336.257-3.444.608l-.759 4.523s4.214-2.598 7.843-2.598h7.556v-2.533h-11.195z" fill="#B2BB1D"/><path d="M338.526 17.556h4.189c1.282 0 2.546.178 3.71.577-1.771-2.263-4.516-3.111-7.352-3.111h-4.186v19.694h3.639v-17.16z" fill="#B2BB1D"/><path d="M366.534 21.02c-1.024-5.461-3.624-10.609-9.337-13.598 3.24 2.978 4.918 6.931 5.695 11.065.697 3.743 3.265 6.398 3.52 6.481-.255.112-2.877 2.85-3.715 5.978-2.153 8.019-8.294 16.566-22.868 16.566h-4.944v13.548c0 4.192 2.343 6.874 2.343 6.874h-14.726c-.639 1.586-1.399 2.533-1.399 2.533h19.767s-2.347-2.682-2.347-6.874v-13.55h4.946c14.577 0 20.718-8.546 22.868-16.564.838-3.13 3.461-5.867 3.715-5.978-.254-.082-2.821-2.738-3.519-6.481" fill="#B2BB1D"/><path d="M392.819 27.724v-16.064c0-4.218 2.373-6.899 2.373-6.899h-5.127c-.481 1.137-.886 2.616-.886 4.366v16.063c0 3.436 3.069 6.369 3.319 6.452-.25.112-3.319 3.073-3.319 6.398v23.018c0 4.219 2.371 6.873 2.371 6.873h-14.776c-.676 1.611-1.493 2.533-1.493 2.533h19.91s-2.373-2.655-2.373-6.874v-23.015c0-3.326 3.071-6.287 3.319-6.401-.247-.082-3.319-3.015-3.319-6.451" fill="#B2BB1D"/><path d="M442.024 67.822c-1.954 0-4.216 1.227-12.843 1.227-5.151 0-9.983-1.059-14.145-3.396 4.855 4.124 11.048 5.929 17.782 5.929 8.63 0 10.892-1.227 12.846-1.227 2.82 0 4.27 1.732 4.27 1.732v-21.204c-.963 1.445-2.03 2.878-3.64 4.072v14.599s-1.451-1.732-4.27-1.732" fill="#B2BB1D"/><path d="M430.714 14.687c-4.72 0-10.221 2.067-12.65 9.555-1.284 3.968 1.676 7.318 1.927 7.401-.251.112-3.517 3.047-3.293 6.315.696 10.132 4.36 14.593 8.488 16.376-2.478-2.577-4.366-6.862-4.851-13.844-.222-3.267 3.046-6.201 3.298-6.315-.253-.082-3.212-3.432-1.93-7.4 2.43-7.488 7.929-9.555 12.65-9.555 4.42 0 7.47.639 9.706 1.649-2.308-2.362-5.882-4.183-13.346-4.183" fill="#B2BB1D"/><path d="M446.294 4.743v15.431c1.609 1.192 2.675 2.628 3.639 4.085v-21.202s-1.243 1.453-3.639 1.686" fill="#B2BB1D"/><path d="M472.134 44.272v16.787c0 4.192 2.343 6.873 2.343 6.873h-14.728c-.638 1.587-1.401 2.533-1.401 2.533h19.773s-2.347-2.681-2.347-6.873v-16.787l2.454-3.649-1.904-5.115-4.189 6.231z" fill="#B2BB1D"/><path d="M505.875 65.828l-16.028-39.781 11.392-16.872c1.007-1.48 4.19-3.436 5.808-4.414h-7.471c-.843.642-1.581 1.298-1.977 1.879l-11.394 16.874 16.03 39.781c.699 1.705 3.321 3.688 4.717 4.638h-17.297c-.295.884-.989 1.887-1.426 2.533h22.363c-1.394-.95-4.017-2.934-4.717-4.638" fill="#B2BB1D"/><path d="M472.134 22.23l3.639-5.576v-4.882c0-4.104 2.263-7.011 2.263-7.011h-5.013c-.473 1.184-.889 2.719-.889 4.477v12.991z" fill="#B2BB1D"/><path d="M550.603 67.933h-34.523c-.639 1.587-1.404 2.533-1.404 2.533h39.569l2.457-15.364s-1.951 1.227-4.363 1.986l-1.736 10.845z" fill="#B2BB1D"/><path d="M528.463 25.191c0 3.436 3.071 6.367 3.32 6.451-.249.114-3.32 3.019-3.32 6.454v17.041h3.643v-14.508c0-3.435 3.07-6.34 3.319-6.454-.249-.084-3.319-3.016-3.319-6.451v-16.064c0-4.245 2.036-6.9 2.036-6.9h-4.921c-.409 1.136-.758 2.613-.758 4.368v16.063z" fill="#B2BB1D"/><path d="M586.819 37.816h-11.198v17.321h3.64v-14.788h11.2c2.566 0 5.472 1.733 5.472 1.733v-16.341s-1.599 1.123-3.642 1.602v12.206s-2.904-1.733-5.474-1.733" fill="#B2BB1D"/><path d="M590.224 15.022h-14.603v10.001h3.642v-7.468h14.604c3.881 0 6.787 2.372 6.787 2.372v-15.166h-3.643v12.633s-2.905-2.373-6.787-2.373" fill="#B2BB1D"/><path d="M599.612 57.088l-1.734 10.845h-34.64c-.639 1.587-1.397 2.533-1.397 2.533h39.678l2.457-15.364s-1.95 1.227-4.363 1.986" fill="#B2BB1D"/><path d="M132.772 57.088c-1.074.338-2.242.584-3.371.584h-16.866v-2.535h-3.64v-17.04c0-3.436 3.071-6.342 3.324-6.454-.253-.084-3.324-3.016-3.324-6.452v-16.063c0-1.755.35-3.232.759-4.368h-14.653s2.373 2.655 2.373 6.9v16.064c0 3.435-3.073 6.369-3.32 6.451.247.114 3.32 3.131 3.32 6.455v22.961c0 1.711-.399 3.193-.861 4.341h34.528l1.731-10.845z" fill="#052722"/><path d="M176.087 63.704l-1.426-7.124h-3.135l.922 4.591c.808 4.08-.7 6.762-.7 6.762h4.427c.186-1.117.245-2.551-.088-4.229" fill="#052722"/><path d="M164.833 43.815l.382-2.533h-4.02l3.374-22.322.17-3.407.193 3.38 1.87 11.867 1.407-9.306.17-3.408.195 3.381 3.521 22.349h-7.263zm22.803 17.133l-4.466-22.292c-.673-3.381 1.755-6.846 1.98-7.013-.247-.027-3.882-2.29-4.55-5.67l-3.409-16.958c-.339-1.706-.258-3.144-.041-4.254h-21.949s1.7 2.597.865 6.788l-3.406 16.985c-.643 3.213-4.328 5.616-4.55 5.641.222.17 2.65 3.634 1.982 6.986l-4.497 22.32c-.359 1.744-1.116 3.271-1.865 4.45h14.197c-1.093-1.621-1.342-3.965-.866-6.342l1.507-7.543h12.452l.507 2.532h3.135l1.426 7.124c.332 1.678.274 3.113.089 4.229h15.341s-3.071-2.906-3.881-6.984z" fill="#052722"/><path d="M234.499 33.479c.889.385 1.72.789 2.505 1.218-1.553-1.395-3.47-2.548-5.745-3.568.773.867 1.832 1.741 3.24 2.35" fill="#052722"/><path d="M222.324 29.261c1.632.543 3.979.084 5.548-.395-1.435-1.492-2.003-3.036-1.984-3.2-.199.25-4.608 1.928-7.205 1.061-.6-.201-1.24-.461-1.885-.768 1.449 1.544 3.689 2.682 5.525 3.301" fill="#052722"/><path d="M211.994 41.049c-.4-.195-.793-.395-1.182-.602 1.29 1.467 1.886 3.034 1.87 3.182.073-.08.739-.419 1.705-.723-.631-.706-1.424-1.38-2.393-1.857" fill="#052722"/><path d="M217.928 69.359c14.577 0 24.125-9.974 24.125-20.954 0-6.511-1.682-10.684-5.05-13.709-.784-.427-1.615-.833-2.504-1.218-1.408-.607-2.467-1.483-3.242-2.348l-.401-.185c-1.259-.545-2.238-1.305-2.985-2.079-1.569.479-3.916.938-5.548.395-1.836-.618-4.077-1.756-5.525-3.301-2.567-1.227-5.151-3.269-5.151-5.882 0-4.106 4.296-5.781 9.406-5.864 8.324-.138 16.274 6.438 16.536 6.654l.023.015v-15.325c-.3.059-.596.097-.878.097-1.985 0-7.598-1.956-13.518-1.956-11.169 0-23.176 7.209-23.176 19.891 0 6.412 2.459 10.669 6.093 13.748.722.416 1.461.808 2.217 1.179 1.004.493 1.819 1.2 2.461 1.932.389.207.782.407 1.182.602.969.476 1.762 1.152 2.394 1.856 1.442-.454 3.562-.829 5.467-.142 2.515.914 4.483 1.824 5.568 3.292 2.811 1.221 4.578 2.679 4.578 5.582 0 4.832-4.718 6.592-9.017 6.592-8.722 0-14.201-3.273-17.158-5.826-1.053-.591-1.973-1.207-2.754-1.807v16.772c.696-.215 1.476-.357 2.338-.357 3.877 0 4.577 2.348 14.518 2.348" fill="#052722"/><path d="M278.91 61.059v-23.214c0-3.323 3.074-6.089 3.323-6.202-.249-.084-3.323-3.016-3.323-6.451v-10.17h11.198c3.632 0 7.848 2.6 7.848 2.6l-2.171-12.86h-44.841l-1.838 10.87c1.109-.353 2.304-.61 3.444-.61h11.195v2.533h3.643v10.169c0 3.436-3.073 6.369-3.32 6.451.247.115 3.32 3.02 3.32 6.455v22.963c0 1.74-.404 3.209-.88 4.339h14.777s-2.375-2.654-2.375-6.873" fill="#052722"/><path d="M334.886 15.022h4.187c2.835 0 5.581.848 7.351 3.111 3.181 1.081 5.618 3.83 5.618 9.367 0 7.403-4.608 9.751-9.188 9.751h-4.329v-2.535h-3.639v-19.694zm0 46.037v-13.55h4.944c14.574 0 20.716-8.545 22.868-16.566.838-3.128 3.459-5.864 3.715-5.978-.255-.082-2.823-2.736-3.52-6.479-.777-4.134-2.455-8.087-5.695-11.066-3.177-1.659-7.293-2.659-12.665-2.659h-23.541s2.375 2.655 2.375 6.899v16.064c0 3.436-3.075 6.369-3.323 6.451.247.114 3.323 2.992 3.323 6.315v23.102c0 1.711-.4 3.194-.863 4.341h14.726s-2.343-2.682-2.343-6.873z" fill="#052722"/><path d="M389.178 61.059v-23.018c0-3.324 3.069-6.285 3.319-6.398-.25-.084-3.319-3.016-3.319-6.451v-16.064c0-1.749.407-3.228.886-4.366h-14.784s2.375 2.681 2.375 6.898v16.064c0 3.436-3.073 6.369-3.321 6.451.249.115 3.321 3.02 3.321 6.455v22.963c0 1.74-.404 3.209-.882 4.339h14.776s-2.371-2.654-2.371-6.873" fill="#052722"/><path d="M445.665 4.789c-1.954 0-4.216-1.257-12.846-1.257-12.175 0-24.124 6.006-27.277 24.193-.561 3.212-3.774 6.451-3.774 6.451s2.824 3.102 3.016 6.538c.711 12.079 4.562 20.105 10.253 24.94 4.162 2.337 8.992 3.396 14.145 3.396 8.628 0 10.888-1.227 12.843-1.227 2.819 0 4.27 1.732 4.27 1.732v-14.599c-2.339 1.738-5.837 2.967-11.939 2.967-3.048 0-6.458-.775-9.168-3.589-4.129-1.782-7.794-6.243-8.49-16.375-.224-3.267 3.042-6.202 3.294-6.314-.253-.084-3.211-3.434-1.928-7.401 2.43-7.488 7.93-9.555 12.652-9.555 7.464 0 11.037 1.821 13.345 4.183.855.385 1.588.825 2.235 1.305v-15.431c-.207.019-.408.046-.63.046" fill="#052722"/><path d="M502.234 63.295l-16.028-39.781 11.392-16.874c.396-.581 1.134-1.237 1.977-1.879h-14.03c.531.865 1.484 2.766.755 3.884l-10.527 16.118v-8.108l-3.639 5.575v-12.991c0-1.759.415-3.293.889-4.477h-14.788s2.375 2.681 2.375 6.9v15.895c0 3.438-3.074 6.536-3.321 6.619.247.115 3.321 2.963 3.321 6.26v23.157c0 1.711-.4 3.193-.862 4.341h14.728s-2.343-2.682-2.343-6.874v-16.787l4.187-6.231 1.904 5.117 1.739-2.582 9.769 26.231c.116.314.061.708-.08 1.126h17.297c-1.396-.95-4.017-2.934-4.717-4.638" fill="#052722"/><path d="M552.339 57.088c-1.077.338-2.244.584-3.37.584h-16.863v-2.535h-3.643v-17.04c0-3.436 3.073-6.342 3.32-6.454-.247-.084-3.32-3.016-3.32-6.452v-16.063c0-1.755.349-3.232.758-4.368h-14.655s2.375 2.655 2.375 6.9v16.064c0 3.435-3.073 6.369-3.323 6.451.25.114 3.323 3.131 3.323 6.455v22.961c0 1.711-.399 3.193-.861 4.341h34.523l1.736-10.845z" fill="#052722"/><path d="M599.612 57.088c-1.076.338-2.244.584-3.374.584h-16.977v-2.535h-3.64v-17.321h11.198c2.571 0 5.474 1.733 5.474 1.733v-12.205c-.549.127-1.127.212-1.719.212h-11.313v-2.533h-3.64v-10.001h14.603c3.882 0 6.787 2.372 6.787 2.372v-12.634h-35.282s2.371 2.71 2.371 6.9v16.064c0 3.435-3.073 6.369-3.324 6.451.251.114 3.324 3.019 3.324 6.455v22.961c0 1.711-.397 3.193-.862 4.341h34.64l1.734-10.845z" fill="#052722"/><path d="M53.875 25.129v-6.619c0-1.721-.972-2.82-.972-2.82h15.976v6.225s-1.182-.976-2.771-.976h-5.999v6.045c.8-1.18 1.853-1.641 3.09-1.652 2.392-.032 5.298 1.242 7.386-.412.536 2.648-1.057 5.436-3.92 5.436-2.059 0-4.439-1.183-6.556-.184v7.239h6.966c1.503 0 3.177-1.069 3.177-1.069l-1.009 6.319h-16.29s.924-1.145.924-2.823v-9.422c0-1.413-1.255-2.606-1.357-2.651.101-.038 1.357-1.269 1.357-2.636" fill="#B2BB1D"/><path d="M20.79 37.219v14.028c0 2.551 1.439 4.153 1.439 4.153h-12.037s1.436-1.602 1.436-4.153v-13.874c0-2.085-1.861-3.838-2.012-3.901.151-.051 2.012-1.826 2.012-3.903v-6.146h-6.77c-2.2 0-4.74 1.57-4.74 1.57l1.562-9.303h36.128s-.982 1.1-.982 2.832v6.524h6.476v-6.524c0-1.732-.974-2.832-.974-2.832h8.179s-.976 1.1-.976 2.832v6.627c0 1.368 1.257 2.579 1.361 2.617-.104.045-1.361 1.237-1.361 2.65v9.424c0 1.733.976 2.823.976 2.823h-8.179s.974-1.09.974-2.823v-9.54h-6.476v9.54c0 1.733.982 2.823.982 2.823h-8.176s.974-1.09.974-2.823v-14.943c-.172-.256-1.076-1.472-3.051-1.472h-6.766v6.146c0 2.076 1.862 3.851 2.007 3.903-.145.064-2.007 1.736-2.007 3.747" fill="#B2BB1D"/><path d="M59.919 55.035c-4.106 0-23.686-2.322-27.772-2.322-2.859 0-5.367 2.266-5.367 2.266 2.482-6.52 7.312-8.294 12.011-8.294 2.984 0 26.176 2.275 27.969 2.275 3.188 0 4.558-1.772 4.558-1.772s.249 7.848-11.399 7.848" fill="#B2BB1D"/><path d="M129.4 57.672c1.13 0 2.297-.246 3.371-.584l.72-4.521s-4.074 2.57-7.732 2.57h-13.224v2.535h16.865z" fill="#324037"/><path d="M97.373 40.63c0-3.323-3.071-6.34-3.32-6.455.249-.082 3.32-3.015 3.32-6.451v-16.064c0-4.243-2.373-6.899-2.373-6.899h14.653c.58-1.614 1.282-2.533 1.282-2.533h-19.577s2.373 2.652 2.373 6.9v16.064c0 3.435-3.073 6.367-3.319 6.451.246.114 3.319 3.13 3.319 6.454v22.963c0 4.079-2.262 6.873-2.262 6.873h5.043c.462-1.146.861-2.629.861-4.341v-22.961z" fill="#324037"/><path d="M150.092 41.161c.668-3.353-1.761-6.816-1.982-6.985.222-.027 3.906-2.428 4.55-5.641l3.406-16.986c.835-4.191-.865-6.788-.865-6.788h21.949c.312-1.615.908-2.533.908-2.533h-26.499s1.701 2.598.866 6.788l-3.408 16.986c-.643 3.213-4.328 5.614-4.55 5.641.222.168 2.652 3.632 1.984 6.985l-4.497 22.32c-.839 4.079-3.856 6.985-3.856 6.985h5.632c.749-1.179 1.505-2.708 1.865-4.452l4.497-22.32z" fill="#324037"/><path fill="#324037" d="M168.38 18.086l-.17 3.408-1.407 9.306 1.65 10.482h-3.238l-.382 2.533h7.263l-3.521-22.349z"/><path d="M197.433 46.897v22.711s1.336-1.53 3.64-2.24v-16.774c-2.511-1.943-3.64-3.697-3.64-3.697" fill="#324037"/><path d="M230.001 51.638c0-2.902-1.767-4.362-4.578-5.582.603.812.938 1.794.938 3.048 0 4.832-4.717 6.592-9.018 6.592-5.936 0-10.352-1.521-13.515-3.294 2.955 2.555 8.434 5.828 17.157 5.828 4.3 0 9.017-1.76 9.017-6.592" fill="#324037"/><path d="M200.04 23.589c0-12.682 12.008-19.891 23.176-19.891 5.92 0 11.534 1.956 13.518 1.956.282 0 .578-.038.88-.097v-4.111s-2.569 1.676-4.52 1.676c-1.985 0-7.598-1.956-13.518-1.956-11.171 0-23.178 7.207-23.178 19.891 0 8.38 4.204 13.082 9.736 16.28-3.635-3.08-6.094-7.336-6.094-13.748" fill="#324037"/><path d="M295.785 4.761l-.427-2.533h-48.059l-2.594 15.394s1.985-1.223 4.402-1.99l1.836-10.87h44.842z" fill="#324037"/><path d="M267.388 40.63c0-3.436-3.071-6.34-3.32-6.455.249-.082 3.32-3.015 3.32-6.451v-10.169h-3.642v7.637c0 3.435-3.07 6.367-3.32 6.451.25.114 3.32 3.017 3.32 6.454v22.963c0 4.219-2.371 6.873-2.371 6.873h5.135c.474-1.13.878-2.6.878-4.341v-22.961z" fill="#324037"/><path d="M339.214 34.717h-.689v2.535h4.329c4.581 0 9.188-2.348 9.188-9.751 0-5.537-2.439-8.287-5.618-9.367 1.216 1.548 1.977 3.755 1.977 6.834 0 7.404-4.608 9.75-9.187 9.75" fill="#324037"/><path d="M323.366 40.49c0-3.323-3.074-6.201-3.323-6.314.249-.082 3.323-3.016 3.323-6.451v-16.064c0-4.245-2.375-6.9-2.375-6.9h23.541c5.374 0 9.49 1.002 12.665 2.66-3.42-3.14-8.579-5.194-16.307-5.194h-23.538s2.373 2.654 2.373 6.901v16.063c0 3.436-3.074 6.369-3.323 6.452.249.112 3.323 2.99 3.323 6.313v23.102c0 4.08-2.262 6.874-2.262 6.874h5.04c.463-1.148.863-2.629.863-4.341v-23.102z" fill="#324037"/><path d="M377.656 40.63c0-3.436-3.071-6.34-3.321-6.455.25-.082 3.321-3.015 3.321-6.451v-16.064c0-4.218-2.375-6.899-2.375-6.899h14.785c.673-1.61 1.484-2.533 1.484-2.533h-19.91s2.377 2.681 2.377 6.9v16.064c0 3.435-3.075 6.367-3.324 6.451.249.114 3.324 3.017 3.324 6.454v22.963c0 4.219-2.377 6.873-2.377 6.873h5.136c.477-1.13.881-2.6.881-4.341v-22.961z" fill="#324037"/><path d="M404.783 40.713c-.193-3.435-3.016-6.538-3.016-6.538s3.213-3.239 3.774-6.451c3.154-18.186 15.103-24.193 27.277-24.193 8.63 0 10.892 1.257 12.846 1.257.222 0 .422-.026.63-.046v-4.219s-1.453 1.733-4.27 1.733c-1.955 0-4.217-1.257-12.843-1.257-12.179 0-24.129 6.005-27.283 24.193-.559 3.212-3.771 6.451-3.771 6.451s2.82 3.102 3.016 6.538c.85 14.501 6.231 23.167 13.893 27.472-5.691-4.834-9.544-12.862-10.253-24.94" fill="#324037"/><path d="M434.355 57.922c6.102 0 9.6-1.23 11.939-2.967v-6.605c-2.373 3.546-5.277 7.038-15.58 7.038-1.789 0-3.702-.266-5.528-1.054 2.711 2.815 6.12 3.589 9.168 3.589" fill="#324037"/><path d="M446.294 21.725v-1.551c-.647-.48-1.38-.921-2.234-1.306.88.898 1.582 1.872 2.234 2.856" fill="#324037"/><path d="M460.611 40.435c0-3.296-3.074-6.146-3.321-6.259.247-.082 3.321-3.182 3.321-6.619v-15.896c0-4.219-2.375-6.9-2.375-6.9h14.788c.632-1.58 1.369-2.533 1.369-2.533h-19.797s2.374 2.681 2.374 6.901v15.895c0 3.436-3.073 6.536-3.32 6.62.247.112 3.32 2.961 3.32 6.258v23.157c0 4.08-2.262 6.874-2.262 6.874h5.04c.463-1.148.863-2.629.863-4.341v-23.157z" fill="#324037"/><path d="M489.734 66.806l-9.769-26.23-1.739 2.581 7.867 21.116c.363.977-.863 2.709-1.505 3.659h5.067c.141-.418.196-.812.08-1.126" fill="#324037"/><path d="M486.3 8.644c.728-1.118-.224-3.019-.755-3.884h14.03c1.297-.987 2.848-1.941 3.829-2.533h-21.499c.53.867 1.48 2.767.754 3.883l-6.886 10.544v8.108l10.527-16.118z" fill="#324037"/><path d="M516.941 40.63c0-3.323-3.071-6.34-3.323-6.455.251-.082 3.323-3.015 3.323-6.451v-16.064c0-4.243-2.375-6.899-2.375-6.899h14.655c.582-1.614 1.282-2.533 1.282-2.533h-19.577s2.375 2.652 2.375 6.9v16.064c0 3.435-3.074 6.367-3.325 6.451.251.114 3.325 3.13 3.325 6.454v22.963c0 4.079-2.265 6.873-2.265 6.873h5.043c.462-1.146.861-2.629.861-4.341v-22.961z" fill="#324037"/><path d="M548.969 57.672c1.126 0 2.293-.246 3.37-.584l.723-4.521s-4.077 2.57-7.734 2.57h-13.22v2.535h16.862z" fill="#324037"/><path d="M590.573 27.557c.592 0 1.17-.085 1.719-.212v-4.137s-2.57 1.816-5.359 1.816h-7.671v2.533h11.311z" fill="#324037"/><path d="M596.238 57.672c1.13 0 2.298-.246 3.374-.584l.722-4.521s-4.074 2.57-7.737 2.57h-13.334v2.535h16.976z" fill="#324037"/><path d="M564.1 40.63c0-3.436-3.071-6.34-3.324-6.455.253-.082 3.324-3.015 3.324-6.451v-16.064c0-4.188-2.371-6.899-2.371-6.899h35.282v-2.533h-38.924s2.373 2.71 2.373 6.9v16.064c0 3.435-3.07 6.367-3.323 6.451.253.114 3.323 3.017 3.323 6.454v22.963c0 4.079-2.262 6.873-2.262 6.873h5.04c.465-1.146.862-2.629.862-4.341v-22.961z" fill="#324037"/></g></svg>