<?xml version="1.0" standalone="no"?>
<!DOCTYPE svg PUBLIC "-//W3C//DTD SVG 20010904//EN"
 "http://www.w3.org/TR/2001/REC-SVG-20010904/DTD/svg10.dtd">
<svg version="1.0" xmlns="http://www.w3.org/2000/svg"
 width="260.000000pt" height="260.000000pt" viewBox="0 0 260.000000 260.000000"
 preserveAspectRatio="xMidYMid meet">
<metadata>
Created by potrace 1.11, written by Peter Selinger 2001-2013
</metadata>
<g transform="translate(0.000000,260.000000) scale(0.100000,-0.100000)"
fill="#000000" stroke="none">
<path d="M990 2544 c-19 -8 -67 -46 -106 -85 -85 -82 -112 -94 -230 -109 -147
-18 -181 -46 -229 -191 -33 -98 -56 -127 -161 -195 -119 -79 -119 -79 -119
-264 l0 -155 -55 -89 c-51 -83 -55 -94 -55 -151 0 -57 4 -68 55 -151 l55 -89
0 -140 c0 -77 2 -148 3 -157 4 -30 52 -77 137 -132 46 -30 90 -65 99 -78 8
-13 29 -62 46 -110 18 -48 41 -99 52 -113 32 -40 86 -62 187 -74 51 -7 107
-19 125 -28 17 -9 63 -46 101 -84 105 -101 142 -109 290 -59 49 16 103 30 120
30 17 0 71 -14 120 -30 145 -49 185 -40 291 65 37 36 80 73 97 82 17 8 76 22
131 29 151 22 182 48 231 194 14 43 35 91 47 105 11 14 59 52 107 85 126 84
126 84 126 270 l0 155 54 88 c70 114 77 161 34 239 -17 29 -45 79 -63 112
l-33 58 7 128 c9 168 0 188 -117 264 -108 70 -132 98 -161 182 -56 164 -90
193 -246 209 -103 10 -129 23 -212 102 -78 74 -126 103 -173 103 -13 0 -67
-13 -118 -30 -52 -16 -111 -30 -132 -30 -21 0 -80 14 -132 30 -105 34 -124 35
-173 14z m572 -277 c176 -53 302 -129 433 -262 130 -131 214 -280 261 -465 29
-113 26 -354 -4 -468 -100 -370 -380 -643 -748 -728 -117 -27 -320 -25 -438 4
-353 88 -633 365 -728 720 -29 111 -36 312 -13 423 85 422 390 721 815 803 14
2 95 3 180 2 133 -3 167 -7 242 -29z"/>
<path d="M1080 1958 c17 -38 20 -67 20 -259 l0 -216 -29 -43 -29 -43 29 -45
29 -46 0 -285 c0 -261 -2 -290 -20 -328 l-19 -43 404 0 c223 0 405 2 405 5 0
9 40 258 46 287 l5 26 -58 -24 c-54 -22 -71 -24 -250 -24 l-193 0 0 193 0 193
31 48 30 48 -20 22 c-36 39 -41 72 -41 284 0 183 3 212 20 250 l19 42 -199 0
-199 0 19 -42z"/>
<path d="M521 1634 c-7 -42 -10 -78 -7 -81 3 -4 17 -1 31 5 14 7 55 12 90 12
l65 0 0 -68 c0 -42 -5 -75 -14 -87 -12 -16 -12 -22 1 -42 12 -18 14 -55 11
-193 l-3 -170 99 0 c90 0 97 1 90 18 -5 9 -10 86 -12 170 -2 121 0 159 11 176
13 19 13 26 1 47 -7 13 -13 53 -14 88 l0 63 78 -4 c42 -3 85 -8 95 -12 21 -10
21 2 6 91 l-11 63 -253 0 -252 0 -12 -76z"/>
<path d="M1549 1692 c17 -31 14 -254 -3 -277 -12 -16 -12 -22 1 -42 12 -18 14
-55 11 -193 l-3 -171 95 3 c79 3 94 6 90 18 -2 8 -6 56 -8 106 l-3 91 71 5
c108 8 153 40 208 148 37 74 41 88 31 110 -6 14 -17 44 -24 67 -19 61 -49 98
-103 125 -42 20 -64 23 -210 26 -162 4 -164 4 -153 -16z m270 -137 c34 -17 41
-32 41 -91 0 -60 -32 -94 -90 -94 l-40 0 0 100 0 100 30 0 c17 0 44 -7 59 -15z"/>
</g>
</svg>
