<svg xmlns="http://www.w3.org/2000/svg" xmlns:xlink="http://www.w3.org/1999/xlink" style="display:none">
<symbol id='footer-logo-lockup' viewBox='0 0 407 209'><svg width="407" height="209" viewBox="0 0 407 209" xmlns="http://www.w3.org/2000/svg" xmlns:xlink="http://www.w3.org/1999/xlink"><title id="footer-logo-lockup-name">The Last Pickle – Est 2010.</title><defs><linearGradient x1="50%" y1="0%" x2="50%" y2="100%"><stop stop-color="#FAF9F4" offset="0%"/><stop stop-color="#F3EFE4" offset="100%"/></linearGradient><linearGradient x1="21.695%" y1="-26.603%" x2="61.918%" y2="110.449%" id="c"><stop stop-color="#C8C2AF" offset="0%"/><stop stop-color="#F9F6EF" offset="50%"/><stop stop-color="#F9F6EF" offset="77.467%"/><stop stop-color="#D1CBBB" offset="100%"/></linearGradient><path d="M197.499 0l-.372.122s-8.426 2.716-21.507 6.931c-13.086 4.217-30.827 9.934-49.467 15.931-37.276 11.995-78.145 25.121-92.479 29.631l-.919.291-.007.002c-9.616 3.135-17.782 8.123-23.569 14.353-5.77 6.213-9.163 13.683-9.177 21.713v.053c.013 8.03 3.407 15.5 9.177 21.715 5.788 6.229 13.953 11.22 23.569 14.355l.009.002.919.291c25.087 7.891 131.416 42.162 157.603 50.605 3.741 1.208 5.848 1.886 5.848 1.886l.374.12.377-.12c.004-.002 2.105-.677 5.846-1.886 3.741-1.206 9.118-2.94 15.659-5.047 13.084-4.215 30.825-9.932 49.465-15.929 37.28-11.997 78.145-25.121 92.479-29.631l.921-.291h.007c9.616-3.135 17.784-8.125 23.567-14.355 5.772-6.215 9.165-13.685 9.179-21.715v-.053c-.013-8.03-3.407-15.5-9.179-21.713-5.783-6.229-13.951-11.218-23.567-14.353l-.009-.002-.921-.293c-25.084-7.893-131.414-42.165-157.601-50.607-3.741-1.204-5.841-1.882-5.846-1.884l-.379-.122z" id="a"/><mask id="d" x="-5.6" y="-5.6" width="406.198" height="189.2"><path fill="#fff" d="M-5.598-5.6h406.198v189.2h-406.198z"/><use xlink:href="#a"/></mask><mask id="e" x="-2.4" y="-2.4" width="399.798" height="182.8"><path fill="#fff" d="M-2.398-2.4h399.798v182.8h-399.798z"/><use xlink:href="#a"/></mask><path d="M63.504 62.647c-6.324 6.275-14.732 9.731-23.675 9.731-8.942 0-17.348-3.456-23.671-9.731-6.325-6.274-9.807-14.617-9.807-23.491 0-8.873 3.482-17.216 9.807-23.491 6.324-6.274 14.729-9.729 23.671-9.729 8.944 0 17.352 3.456 23.675 9.729 6.324 6.275 9.806 14.617 9.806 23.491 0 8.874-3.482 17.216-9.806 23.491m16.445-23.465c-.006-2.897-3.207-5.418-3.851-8.174-.655-2.802 1.089-6.461-.166-9.022-1.262-2.573-5.242-3.473-7.044-5.707-1.794-2.223-1.812-6.276-4.082-8.064-2.233-1.76-6.207-.862-8.841-2.108-2.554-1.208-4.338-4.853-7.214-5.495-2.875-.642-6.06 1.893-8.888 1.899-2.921.006-6.122-2.495-8.901-1.855-2.823.651-4.589 4.306-7.17 5.552-2.594 1.251-6.58.372-8.83 2.161-2.239 1.781-2.244 5.829-4.046 8.081-1.773 2.217-5.753 3.134-7.01 5.749-1.217 2.533.551 6.172-.094 9.025-.647 2.852-3.817 5.39-3.812 8.195.007 2.896 3.208 5.418 3.853 8.174.655 2.801-1.089 6.461.165 9.022 1.263 2.573 5.242 3.473 7.045 5.706 1.795 2.222 1.811 6.276 4.081 8.064 2.235 1.76 6.209.861 8.842 2.108 2.554 1.208 4.337 4.854 7.213 5.496 2.874.642 6.061-1.893 8.889-1.899 2.919-.007 6.119 2.493 8.899 1.854 2.824-.65 4.59-4.306 7.169-5.552 2.595-1.251 6.58-.371 8.83-2.161 2.24-1.779 2.244-5.828 4.046-8.081 1.773-2.217 5.753-3.135 7.009-5.749 1.216-2.533-.551-6.173.097-9.025.645-2.853 3.815-5.389 3.809-8.195z" id="f"/><filter x="-50%" y="-50%" width="200%" height="200%" filterUnits="objectBoundingBox" id="g"><feGaussianBlur stdDeviation="1" in="SourceAlpha" result="shadowBlurInner1"/><feOffset dy="1" in="shadowBlurInner1" result="shadowOffsetInner1"/><feComposite in="shadowOffsetInner1" in2="SourceAlpha" operator="arithmetic" k2="-1" k3="1" result="shadowInnerInner1"/><feColorMatrix values="0 0 0 0 0.490196078 0 0 0 0 0.552941176 0 0 0 0 0.223529412 0 0 0 1 0" in="shadowInnerInner1"/></filter><path d="M8.305 39.156c0 17.248 14.142 31.281 31.524 31.281 17.384 0 31.527-14.032 31.527-31.281 0-17.247-14.143-31.28-31.527-31.28-17.382 0-31.524 14.032-31.524 31.28z" id="b"/><filter x="-50%" y="-50%" width="200%" height="200%" filterUnits="objectBoundingBox" id="h"><feGaussianBlur stdDeviation="4" in="SourceAlpha" result="shadowBlurInner1"/><feOffset in="shadowBlurInner1" result="shadowOffsetInner1"/><feComposite in="shadowOffsetInner1" in2="SourceAlpha" operator="arithmetic" k2="-1" k3="1" result="shadowInnerInner1"/><feColorMatrix values="0 0 0 0 0.68627451 0 0 0 0 0.670588235 0 0 0 0 0.580392157 0 0 0 1 0" in="shadowInnerInner1"/></filter><mask id="i" x="-1.92" y="-1.92" width="66.89" height="66.4"><path fill="#fff" d="M6.385 5.957h66.89v66.4h-66.89z"/><use xlink:href="#b"/></mask></defs><g fill="none"><g transform="translate(6 25)"><mask><use xlink:href="#a"/></mask><g><use fill="url(#c)" xlink:href="#a"/><use stroke="#657037" mask="url(#d)" stroke-width="11.2" xlink:href="#a"/><use stroke="#2E3A33" mask="url(#e)" stroke-width="4.8" xlink:href="#a"/></g></g><g><path d="M121.917 128.57h-16.578c-.308.761-.673 1.215-.673 1.215h18.997l1.181-7.366s-.937.589-2.096.952l-.831 5.199z" id="Fill-1" fill="#B2BB1D"/><path d="M111.284 108.078c0 1.648 1.474 3.053 1.596 3.093-.122.054-1.596 1.447-1.596 3.094v8.171h1.748v-6.956c0-1.647 1.475-3.04 1.597-3.094-.121-.04-1.597-1.446-1.597-3.093v-7.702c0-2.035.98-3.308.98-3.308h-2.363c-.197.544-.365 1.253-.365 2.094v7.701z" fill="#B2BB1D"/><path d="M150.838 126.436l-2.144-10.689c-.324-1.62.844-3.281.95-3.363-.119-.012-1.863-1.097-2.185-2.718l-1.636-8.13c-.402-2.009.417-3.254.417-3.254h-2.184c-.104.532-.144 1.222.019 2.04l1.637 8.13c.32 1.62 2.065 2.705 2.184 2.718-.108.08-1.274 1.742-.95 3.363l2.144 10.688c.388 1.955 1.863 3.348 1.863 3.348h-7.366c-.127.766-.378 1.215-.378 1.215h9.491s-1.475-1.394-1.863-3.349" fill="#B2BB1D"/><path fill="#B2BB1D" d="M138.19 105.078l-.093-1.62-.082 1.633-1.62 10.702h1.931l.762-5.026z"/><path d="M135.134 121.913l-.723 3.617c-.228 1.139-.109 2.263.415 3.04h-6.816c-.481.758-.956 1.215-.956 1.215h9.52c-.524-.778-.643-1.902-.416-3.04l.723-3.617h4.475l-.243-1.215h-5.978z" fill="#B2BB1D"/><path d="M160.619 105.626c0 1.253 1.24 2.232 2.474 2.82-.436-.463-.725-1.002-.725-1.605 0-1.968 2.064-2.771 4.515-2.812 2.373-.04 4.678 1.056 6.193 1.976-.125-.104-3.943-3.256-7.939-3.19-2.454.04-4.517.843-4.517 2.812" fill="#B2BB1D"/><path d="M172.793 112.635c1.617 1.451 2.424 3.451 2.424 6.573 0 5.264-4.584 10.046-11.582 10.046-4.774 0-5.109-1.126-6.97-1.126-.414 0-.788.068-1.122.171v2.289s1.086-1.246 2.87-1.246c1.863 0 2.197 1.126 6.973 1.126 6.997 0 11.582-4.782 11.582-10.046 0-4.096-1.386-6.266-4.173-7.788" fill="#B2BB1D"/><path d="M169.842 110.837l.193.089c-.601-.672-.839-1.331-.83-1.405-.036.045-.35.183-.796.32.359.371.828.736 1.433.997" fill="#B2BB1D"/><path d="M164.559 116.503c-.915-.329-1.933-.149-2.625.068.642.714.937 1.489.929 1.561.091-.094 1.915-.965 3.444-.415.33.12.64.24.926.365-.521-.704-1.466-1.14-2.674-1.579" fill="#B2BB1D"/><path d="M159.036 114.467c-.364-.178-.718-.366-1.065-.565.677.572 1.436 1.061 2.246 1.491-.308-.351-.699-.69-1.181-.926" fill="#B2BB1D"/><path d="M174.834 107.229v-9.322s-.902.586-1.748.756v7.348c1.073.653 1.748 1.217 1.748 1.217" fill="#B2BB1D"/><path d="M155.542 119.699v.558c.374.288.817.583 1.322.867-.906-.782-1.322-1.425-1.322-1.425" fill="#B2BB1D"/><path d="M201.016 98.283l1.042 6.166s-2.024-1.246-3.767-1.246h-5.376v4.876c0 1.647 1.476 3.053 1.595 3.093-.119.054-1.595 1.381-1.595 2.974v11.13c0 2.023 1.141 3.295 1.141 3.295h-7.095c-.324.773-.717 1.215-.717 1.215h9.561s-1.142-1.273-1.142-3.296v-11.129c0-1.594 1.477-2.92 1.596-2.975-.119-.04-1.596-1.445-1.596-3.093v-4.875h5.378c1.743 0 3.767 1.246 3.767 1.246l-1.247-7.38h-1.543z" fill="#B2BB1D"/><path d="M180.258 103.202c-.548 0-1.122.123-1.654.292l-.365 2.169s2.024-1.246 3.765-1.246h3.628v-1.215h-5.375z" fill="#B2BB1D"/><path d="M221.537 104.417h2.011c.616 0 1.222.086 1.782.277-.851-1.085-2.168-1.491-3.53-1.491h-2.01v9.442h1.747v-8.228z" fill="#B2BB1D"/><path d="M234.985 106.078c-.492-2.619-1.74-5.087-4.483-6.52 1.556 1.428 2.362 3.323 2.735 5.305.335 1.795 1.567 3.068 1.69 3.107-.123.054-1.381 1.366-1.783 2.866-1.033 3.845-3.982 7.942-10.98 7.942h-2.374v6.496c0 2.01 1.125 3.296 1.125 3.296h-7.07c-.307.76-.671 1.215-.671 1.215h9.491s-1.127-1.286-1.127-3.296v-6.496h2.374c6.999 0 9.948-4.098 10.98-7.942.402-1.5 1.661-2.813 1.783-2.866-.122-.04-1.355-1.313-1.689-3.107" fill="#B2BB1D"/><path d="M247.605 109.292v-7.702c0-2.022 1.139-3.307 1.139-3.307h-2.461c-.231.545-.426 1.254-.426 2.094v7.701c0 1.648 1.473 3.053 1.593 3.094-.12.054-1.593 1.473-1.593 3.068v11.036c0 2.023 1.139 3.295 1.139 3.295h-7.094c-.324.773-.717 1.215-.717 1.215h9.56s-1.139-1.273-1.139-3.296v-11.035c0-1.594 1.475-3.015 1.593-3.069-.119-.04-1.593-1.445-1.593-3.093" fill="#B2BB1D"/><path d="M271.23 128.517c-.938 0-2.024.589-6.167.589-2.473 0-4.793-.508-6.791-1.628 2.331 1.977 5.304 2.843 8.538 2.843 4.144 0 5.23-.589 6.168-.589 1.354 0 2.05.83 2.05.83v-10.166c-.463.693-.974 1.38-1.748 1.952v6.999s-.697-.83-2.05-.83" fill="#B2BB1D"/><path d="M265.8 103.042c-2.266 0-4.907.991-6.074 4.581-.616 1.902.804 3.508.925 3.549-.121.054-1.689 1.461-1.581 3.028.334 4.858 2.094 6.997 4.076 7.852-1.19-1.235-2.096-3.29-2.329-6.638-.106-1.567 1.462-2.973 1.584-3.027-.121-.04-1.542-1.646-.926-3.548 1.166-3.59 3.807-4.581 6.074-4.581 2.122 0 3.586.307 4.66.791-1.108-1.132-2.824-2.005-6.408-2.005" fill="#B2BB1D"/><path d="M273.28 98.274v7.399c.773.572 1.285 1.26 1.747 1.959v-10.166s-.597.697-1.747.808" fill="#B2BB1D"/><path d="M285.687 117.226v8.049c0 2.01 1.125 3.295 1.125 3.295h-7.072c-.306.761-.673 1.215-.673 1.215h9.493s-1.127-1.285-1.127-3.295v-8.049l1.178-1.749-.914-2.453-2.011 2.987z" fill="#B2BB1D"/><path d="M301.887 127.561l-7.696-19.073 5.47-8.09c.483-.71 2.012-1.648 2.788-2.116h-3.587c-.405.308-.759.622-.949.901l-5.47 8.09 7.696 19.073c.335.817 1.595 1.768 2.265 2.224h-8.305c-.141.424-.475.905-.684 1.215h10.737c-.67-.456-1.929-1.406-2.265-2.224" fill="#B2BB1D"/><path d="M285.687 106.658l1.747-2.674v-2.34c0-1.968 1.087-3.361 1.087-3.361h-2.407c-.227.568-.427 1.303-.427 2.147v6.229z" fill="#B2BB1D"/><path d="M323.362 128.57h-16.575c-.307.761-.674 1.215-.674 1.215h18.999l1.179-7.366s-.937.589-2.095.952l-.834 5.199z" fill="#B2BB1D"/><path d="M312.732 108.078c0 1.648 1.475 3.053 1.594 3.093-.119.054-1.594 1.447-1.594 3.094v8.171h1.749v-6.956c0-1.647 1.474-3.04 1.593-3.094-.119-.04-1.593-1.446-1.593-3.093v-7.702c0-2.035.978-3.308.978-3.308h-2.363c-.197.544-.364 1.253-.364 2.094v7.701z" fill="#B2BB1D"/><path d="M340.751 114.131h-5.376v8.305h1.748v-7.09h5.378c1.232 0 2.628.831 2.628.831v-7.835s-.767.539-1.748.768v5.852s-1.394-.831-2.628-.831" fill="#B2BB1D"/><path d="M342.386 103.202h-7.011v4.795h1.748v-3.58h7.012c1.863 0 3.259 1.137 3.259 1.137v-7.272h-1.749v6.057s-1.395-1.137-3.259-1.137" fill="#B2BB1D"/><path d="M346.893 123.371l-.832 5.199h-16.632c-.307.761-.671 1.215-.671 1.215h19.05l1.179-7.366s-.936.589-2.095.952" fill="#B2BB1D"/><path d="M122.748 123.371c-.516.162-1.076.28-1.619.28h-8.098v-1.215h-1.748v-8.17c0-1.648 1.475-3.04 1.596-3.094-.121-.04-1.596-1.446-1.596-3.094v-7.701c0-.841.168-1.55.365-2.094h-7.035s1.139 1.273 1.139 3.308v7.702c0 1.647-1.475 3.053-1.594 3.093.119.054 1.594 1.501 1.594 3.095v11.009c0 .821-.191 1.531-.413 2.081h16.578l.831-5.199z" fill="#052722"/><path d="M143.545 126.543l-.684-3.416h-1.505l.442 2.201c.388 1.956-.336 3.242-.336 3.242h2.125c.09-.535.117-1.223-.042-2.027" fill="#052722"/><path d="M138.142 117.007l.184-1.215h-1.93l1.62-10.702.082-1.633.093 1.62.898 5.689.675-4.462.082-1.634.093 1.621 1.691 10.715h-3.487zm10.949 8.215l-2.144-10.688c-.323-1.621.843-3.282.95-3.363-.119-.013-1.864-1.098-2.184-2.718l-1.637-8.13c-.163-.818-.124-1.508-.019-2.04h-10.539s.816 1.245.415 3.254l-1.636 8.143c-.309 1.541-2.078 2.692-2.184 2.705.106.082 1.272 1.742.952 3.35l-2.159 10.702c-.173.836-.536 1.569-.895 2.134h6.817c-.525-.777-.644-1.901-.416-3.04l.723-3.617h5.978l.243 1.214h1.505l.684 3.416c.16.804.132 1.493.043 2.027h7.365s-1.475-1.394-1.863-3.348z" fill="#052722"/><path d="M171.591 112.051c.427.185.826.379 1.203.584-.745-.669-1.666-1.222-2.759-1.71.371.415.88.835 1.556 1.126" fill="#052722"/><path d="M165.745 110.029c.784.261 1.911.04 2.664-.189-.689-.716-.961-1.456-.952-1.534-.095.12-2.212.924-3.459.509-.288-.097-.596-.221-.905-.368.695.74 1.771 1.286 2.653 1.583" fill="#052722"/><path d="M160.785 115.681l-.568-.288c.62.703.906 1.454.898 1.526.035-.038.355-.201.819-.347-.303-.338-.684-.662-1.149-.891" fill="#052722"/><path d="M163.634 129.254c6.999 0 11.583-4.782 11.583-10.046 0-3.121-.808-5.122-2.424-6.573-.376-.205-.775-.399-1.202-.584-.676-.291-1.185-.711-1.556-1.126l-.193-.089c-.605-.261-1.074-.625-1.433-.997-.753.229-1.88.45-2.664.189-.882-.296-1.957-.842-2.653-1.583-1.233-.589-2.473-1.567-2.473-2.82 0-1.968 2.062-2.771 4.516-2.812 3.996-.066 7.814 3.086 7.94 3.19l.011.007v-7.347c-.144.029-.286.047-.422.047-.953 0-3.648-.938-6.49-.938-5.363 0-11.128 3.457-11.128 9.537 0 3.074 1.181 5.115 2.925 6.592.346.2.701.388 1.065.565.482.237.873.576 1.181.926l.568.288c.465.228.846.552 1.15.89.692-.218 1.71-.397 2.625-.068 1.207.438 2.153.874 2.674 1.578 1.349.585 2.198 1.285 2.198 2.676 0 2.316-2.266 3.16-4.329 3.16-4.188 0-6.819-1.569-8.238-2.794-.505-.283-.947-.579-1.322-.867v8.042c.334-.103.708-.171 1.122-.171 1.861 0 2.197 1.126 6.97 1.126" fill="#052722"/><path d="M192.914 125.275v-11.13c0-1.593 1.476-2.919 1.595-2.974-.119-.04-1.595-1.446-1.595-3.093v-4.876h5.376c1.744 0 3.768 1.246 3.768 1.246l-1.043-6.166h-21.529l-.882 5.212c.533-.169 1.106-.292 1.654-.292h5.375v1.215h1.749v4.875c0 1.648-1.475 3.053-1.594 3.093.119.055 1.594 1.448 1.594 3.095v11.009c0 .834-.194 1.539-.422 2.081h7.095s-1.141-1.272-1.141-3.295" fill="#052722"/><path d="M219.79 103.202h2.011c1.361 0 2.679.406 3.529 1.491 1.527.519 2.698 1.836 2.698 4.491 0 3.549-2.212 4.675-4.412 4.675h-2.079v-1.215h-1.747v-9.442zm0 22.073v-6.496h2.374c6.998 0 9.946-4.097 10.98-7.942.402-1.5 1.661-2.812 1.783-2.866-.123-.04-1.355-1.312-1.69-3.107-.373-1.982-1.179-3.877-2.735-5.306-1.525-.795-3.501-1.275-6.081-1.275h-11.303s1.141 1.273 1.141 3.307v7.702c0 1.648-1.477 3.053-1.595 3.093.119.054 1.595 1.434 1.595 3.027v11.076c0 .821-.192 1.532-.415 2.081h7.07s-1.125-1.286-1.125-3.295z" fill="#052722"/><path d="M245.857 125.275v-11.036c0-1.594 1.473-3.013 1.593-3.068-.12-.04-1.593-1.446-1.593-3.093v-7.702c0-.839.195-1.548.426-2.094h-7.098s1.141 1.285 1.141 3.308v7.702c0 1.648-1.475 3.053-1.595 3.093.119.055 1.595 1.448 1.595 3.095v11.009c0 .834-.194 1.539-.424 2.081h7.094s-1.139-1.272-1.139-3.295" fill="#052722"/><path d="M272.978 98.296c-.938 0-2.024-.603-6.168-.603-5.845 0-11.582 2.88-13.097 11.599-.269 1.54-1.812 3.093-1.812 3.093s1.356 1.488 1.448 3.134c.341 5.791 2.19 9.639 4.923 11.958 1.998 1.121 4.318 1.628 6.791 1.628 4.142 0 5.228-.589 6.167-.589 1.353 0 2.05.83 2.05.83v-6.999c-1.123.834-2.803 1.423-5.733 1.423-1.464 0-3.1-.371-4.402-1.721-1.983-.854-3.742-2.993-4.076-7.851-.108-1.567 1.46-2.974 1.582-3.027-.121-.04-1.541-1.646-.926-3.549 1.166-3.59 3.808-4.581 6.074-4.581 3.584 0 5.299.873 6.407 2.005.411.185.762.395 1.073.625v-7.399l-.302.022" fill="#052722"/><path d="M300.139 126.347l-7.696-19.073 5.47-8.09c.19-.279.544-.593.949-.901h-6.736c.255.415.712 1.326.363 1.862l-5.055 7.728v-3.888l-1.747 2.673v-6.229c0-.843.199-1.579.427-2.147h-7.1s1.141 1.285 1.141 3.308v7.621c0 1.648-1.476 3.134-1.595 3.173.119.055 1.595 1.421 1.595 3.002v11.103c0 .821-.192 1.531-.414 2.081h7.072s-1.125-1.286-1.125-3.296v-8.049l2.011-2.987.914 2.453.835-1.238 4.691 12.577c.056.15.029.34-.038.54h8.305c-.67-.456-1.929-1.406-2.265-2.224" fill="#052722"/><path d="M324.196 123.371c-.517.162-1.078.28-1.618.28h-8.097v-1.215h-1.749v-8.17c0-1.648 1.475-3.04 1.594-3.094-.119-.04-1.594-1.446-1.594-3.094v-7.701c0-.841.167-1.55.364-2.094h-7.037s1.141 1.273 1.141 3.308v7.702c0 1.647-1.475 3.053-1.595 3.093.12.054 1.595 1.501 1.595 3.095v11.009c0 .821-.191 1.531-.413 2.081h16.575l.834-5.199z" fill="#052722"/><path d="M346.893 123.371c-.516.162-1.078.28-1.62.28h-8.151v-1.215h-1.748v-8.305h5.376c1.235 0 2.628.831 2.628.831v-5.851c-.263.061-.541.102-.825.102h-5.431v-1.215h-1.748v-4.795h7.011c1.864 0 3.259 1.137 3.259 1.137v-6.058h-16.94s1.139 1.3 1.139 3.308v7.702c0 1.647-1.475 3.053-1.596 3.093.121.054 1.596 1.447 1.596 3.095v11.009c0 .821-.191 1.531-.414 2.081h16.632l.832-5.199z" fill="#052722"/><path d="M84.867 108.048v-3.173c0-.825-.466-1.352-.466-1.352h7.67v2.985s-.568-.468-1.331-.468h-2.881v2.899c.384-.566.889-.787 1.484-.792 1.148-.016 2.544.596 3.546-.198.258 1.27-.507 2.606-1.882 2.606-.989 0-2.131-.567-3.148-.088v3.471h3.344c.721 0 1.525-.513 1.525-.513l-.485 3.029h-7.822s.444-.549.444-1.353v-4.518c0-.677-.603-1.25-.651-1.271.049-.018.651-.609.651-1.264" fill="#B2BB1D"/><path d="M68.982 113.845v6.726c0 1.223.691 1.991.691 1.991h-5.779s.69-.768.69-1.991v-6.652c0-.999-.893-1.84-.966-1.871.073-.025.966-.876.966-1.871v-2.946h-3.25c-1.056 0-2.276.753-2.276.753l.75-4.461h17.346s-.472.528-.472 1.358v3.128h3.11v-3.128c0-.83-.468-1.358-.468-1.358h3.927s-.468.528-.468 1.358v3.177c0 .656.603 1.237.653 1.255-.05.021-.653.593-.653 1.27v4.518c0 .831.468 1.353.468 1.353h-3.927s.468-.522.468-1.353v-4.574h-3.11v4.574c0 .831.472 1.353.472 1.353h-3.926s.468-.522.468-1.353v-7.165c-.082-.123-.516-.706-1.465-.706h-3.248v2.946c0 .996.894 1.847.963 1.871-.069.03-.963.832-.963 1.797" fill="#B2BB1D"/><path d="M87.769 122.387c-1.972 0-11.372-1.114-13.334-1.114-1.373 0-2.577 1.086-2.577 1.086 1.192-3.126 3.51-3.976 5.767-3.976 1.432 0 12.568 1.091 13.429 1.091 1.53 0 2.188-.85 2.188-.85s.119 3.762-5.473 3.762" fill="#B2BB1D"/><path d="M121.129 123.651c.542 0 1.103-.118 1.619-.28l.346-2.167s-1.956 1.232-3.712 1.232h-6.35v1.215h8.097z" fill="#324037"/><path d="M105.752 115.48c0-1.593-1.475-3.04-1.594-3.095.119-.04 1.594-1.445 1.594-3.093v-7.702c0-2.035-1.139-3.308-1.139-3.308h7.035c.278-.774.616-1.215.616-1.215h-9.399s1.139 1.272 1.139 3.308v7.702c0 1.647-1.475 3.053-1.593 3.093.118.054 1.593 1.5 1.593 3.094v11.009c0 1.955-1.086 3.295-1.086 3.295h2.421c.222-.55.413-1.261.413-2.081v-11.009z" fill="#324037"/><path d="M131.064 115.735c.32-1.607-.845-3.268-.952-3.349.106-.013 1.876-1.164 2.184-2.705l1.636-8.144c.401-2.009-.415-3.254-.415-3.254h10.539c.15-.775.436-1.215.436-1.215h-12.723s.817 1.246.416 3.254l-1.636 8.144c-.309 1.541-2.078 2.692-2.184 2.705.106.08 1.274 1.742.952 3.349l-2.159 10.702c-.403 1.955-1.852 3.349-1.852 3.349h2.704c.359-.565.723-1.298.895-2.134l2.159-10.702z" fill="#324037"/><path fill="#324037" d="M139.845 104.671l-.082 1.634-.675 4.462.792 5.026h-1.554l-.184 1.215h3.487l-1.691-10.715z"/><path d="M153.794 118.485v10.889s.642-.734 1.748-1.074v-8.042c-1.205-.931-1.748-1.773-1.748-1.773" fill="#324037"/><path d="M169.431 120.758c0-1.392-.849-2.092-2.198-2.676.289.39.45.86.45 1.462 0 2.316-2.265 3.16-4.33 3.16-2.85 0-4.97-.729-6.489-1.58 1.419 1.225 4.05 2.794 8.237 2.794 2.064 0 4.329-.844 4.329-3.16" fill="#324037"/><path d="M155.046 107.31c0-6.08 5.766-9.537 11.128-9.537 2.842 0 5.538.938 6.49.938.136 0 .278-.018.422-.047v-1.971s-1.233.804-2.17.804c-.953 0-3.648-.938-6.49-.938-5.363 0-11.128 3.455-11.128 9.537 0 4.018 2.018 6.272 4.674 7.806-1.745-1.476-2.926-3.518-2.926-6.592" fill="#324037"/><path d="M201.016 98.283l-.205-1.215h-23.075l-1.246 7.38s.953-.587 2.114-.954l.882-5.212h21.53z" fill="#324037"/><path d="M187.382 115.48c0-1.648-1.475-3.04-1.594-3.095.119-.04 1.594-1.445 1.594-3.093v-4.875h-1.748v3.661c0 1.647-1.474 3.053-1.594 3.093.12.054 1.594 1.447 1.594 3.094v11.009c0 2.023-1.139 3.295-1.139 3.295h2.465c.228-.542.422-1.246.422-2.081v-11.009z" fill="#324037"/><path d="M221.868 112.645h-.331v1.215h2.079c2.199 0 4.412-1.126 4.412-4.675 0-2.655-1.171-3.973-2.698-4.491.584.742.949 1.801.949 3.276 0 3.55-2.212 4.674-4.411 4.674" fill="#324037"/><path d="M214.259 115.413c0-1.593-1.476-2.973-1.595-3.027.119-.04 1.595-1.446 1.595-3.093v-7.702c0-2.035-1.141-3.308-1.141-3.308h11.303c2.58 0 4.556.48 6.081 1.276-1.642-1.506-4.119-2.49-7.829-2.49h-11.302s1.139 1.272 1.139 3.309v7.701c0 1.648-1.476 3.053-1.595 3.094.119.054 1.595 1.434 1.595 3.027v11.076c0 1.956-1.086 3.296-1.086 3.296h2.42c.223-.55.415-1.261.415-2.081v-11.076z" fill="#324037"/><path d="M240.325 115.48c0-1.648-1.475-3.04-1.595-3.095.12-.04 1.595-1.445 1.595-3.093v-7.702c0-2.022-1.141-3.308-1.141-3.308h7.099c.323-.772.712-1.215.712-1.215h-9.56s1.141 1.285 1.141 3.308v7.702c0 1.647-1.477 3.053-1.596 3.093.119.054 1.596 1.447 1.596 3.094v11.009c0 2.023-1.141 3.295-1.141 3.295h2.466c.229-.542.423-1.246.423-2.081v-11.009z" fill="#324037"/><path d="M253.35 115.52c-.093-1.647-1.448-3.134-1.448-3.134s1.543-1.553 1.812-3.093c1.514-8.72 7.251-11.599 13.097-11.599 4.144 0 5.23.603 6.168.603l.302-.022v-2.023s-.697.831-2.05.831c-.939 0-2.025-.603-6.167-.603-5.847 0-11.585 2.879-13.099 11.599-.269 1.54-1.811 3.093-1.811 3.093s1.354 1.488 1.448 3.134c.408 6.953 2.991 11.107 6.671 13.172-2.733-2.318-4.582-6.166-4.923-11.958" fill="#324037"/><path d="M267.548 123.771c2.93 0 4.61-.59 5.733-1.423v-3.167c-1.139 1.7-2.533 3.374-7.48 3.374-.859 0-1.778-.128-2.654-.506 1.301 1.349 2.938 1.721 4.402 1.721" fill="#324037"/><path d="M273.28 106.416v-.743c-.311-.23-.662-.441-1.072-.626.422.43.76.898 1.072 1.37" fill="#324037"/><path d="M280.154 115.386c0-1.58-1.476-2.946-1.595-3.001.119-.04 1.595-1.526 1.595-3.173v-7.622c0-2.023-1.141-3.308-1.141-3.308h7.1c.304-.758.657-1.215.657-1.215h-9.505s1.14 1.285 1.14 3.309v7.621c0 1.648-1.475 3.134-1.594 3.174.119.054 1.594 1.419 1.594 3v11.103c0 1.956-1.086 3.296-1.086 3.296h2.42c.223-.55.415-1.261.415-2.081v-11.103z" fill="#324037"/><path d="M294.137 128.031l-4.691-12.576-.835 1.237 3.777 10.124c.175.469-.415 1.299-.723 1.755h2.433c.067-.2.094-.39.038-.54" fill="#324037"/><path d="M292.489 100.145c.35-.536-.108-1.447-.363-1.862h6.736c.623-.473 1.368-.931 1.839-1.215h-10.323c.254.415.71 1.327.362 1.861l-3.306 5.056v3.888l5.055-7.728z" fill="#324037"/><path d="M307.2 115.48c0-1.593-1.475-3.04-1.595-3.095.121-.04 1.595-1.445 1.595-3.093v-7.702c0-2.035-1.141-3.308-1.141-3.308h7.037c.28-.774.616-1.215.616-1.215h-9.399s1.141 1.272 1.141 3.308v7.702c0 1.647-1.476 3.053-1.597 3.093.121.054 1.597 1.5 1.597 3.094v11.009c0 1.955-1.087 3.295-1.087 3.295h2.421c.222-.55.413-1.261.413-2.081v-11.009z" fill="#324037"/><path d="M322.578 123.651c.54 0 1.101-.118 1.618-.28l.347-2.167s-1.957 1.232-3.714 1.232h-6.348v1.215h8.096z" fill="#324037"/><path d="M342.554 109.212c.284 0 .562-.041.825-.102v-1.983s-1.234.87-2.573.87h-3.683v1.215h5.431z" fill="#324037"/><path d="M345.273 123.651c.542 0 1.104-.118 1.62-.28l.346-2.167s-1.956 1.232-3.715 1.232h-6.402v1.215h8.15z" fill="#324037"/><path d="M329.843 115.48c0-1.648-1.475-3.04-1.596-3.095.121-.04 1.596-1.445 1.596-3.093v-7.702c0-2.008-1.139-3.308-1.139-3.308h16.94v-1.215h-18.688s1.139 1.3 1.139 3.308v7.702c0 1.647-1.474 3.053-1.595 3.093.121.054 1.595 1.447 1.595 3.094v11.009c0 1.955-1.086 3.295-1.086 3.295h2.42c.223-.55.414-1.261.414-2.081v-11.009z" fill="#324037"/></g><g fill="#AAB52A"><path d="M213 147h2.304c.535 0 1.011.073 1.43.219.418.146.771.35 1.058.613.287.263.506.576.657.939.151.363.226.761.226 1.196v.017c0 .434-.077.836-.23 1.204-.154.369-.376.687-.666.956-.29.269-.646.479-1.067.63-.421.151-.902.227-1.442.227h-2.27v-6zm2.33 4.526c.501 0 .9-.131 1.199-.394.299-.263.448-.637.448-1.123v-.017c0-.486-.149-.86-.448-1.123-.299-.263-.698-.394-1.199-.394h-.674v3.051h.674z"/><path d="M213.8 155.8h5.6v-1.6h-6.3999999999999995v1.6z"/><path d="M183.075 147.04h6.758v1.754h-4.8v1.818h4.224v1.754h-4.224v1.882h4.864v1.754h-6.822v-8.96zm13.47 9.088c-.683 0-1.353-.117-2.01-.352-.657-.235-1.254-.595-1.792-1.082l1.165-1.395c.41.333.83.597 1.261.794.431.196.902.294 1.414.294.41 0 .727-.075.954-.224.226-.149.339-.356.339-.621v-.026c0-.128-.023-.241-.07-.339-.047-.098-.137-.19-.269-.275-.132-.085-.316-.171-.55-.256-.235-.085-.54-.175-.915-.269-.452-.119-.862-.245-1.229-.378-.367-.132-.678-.299-.934-.499-.256-.201-.454-.45-.595-.749-.141-.299-.211-.67-.211-1.114v-.026c0-.41.077-.779.23-1.107.154-.329.369-.612.646-.851s.608-.422.992-.55c.384-.128.806-.192 1.267-.192.657 0 1.261.098 1.811.294.55.196 1.056.478 1.517.845l-1.024 1.485c-.401-.273-.794-.489-1.178-.646-.384-.158-.768-.237-1.152-.237-.384 0-.672.075-.864.224-.192.149-.288.335-.288.557v.026c0 .145.028.271.083.378.055.107.156.203.301.288.145.085.343.166.595.243.252.077.57.166.954.269.452.119.855.254 1.21.403.354.149.653.329.896.538.243.209.427.454.55.736.124.282.186.619.186 1.011v.026c0 .444-.081.838-.243 1.184-.162.346-.388.636-.678.87-.29.235-.636.414-1.037.538-.401.124-.845.186-1.331.186zm8.798-7.27h-2.726v-1.818h7.424v1.818h-2.726v7.142h-1.971v-7.142z"/><path d="M182.706 170.643l3.355-2.75c.317-.259.586-.492.806-.698.221-.206.401-.403.54-.59.139-.187.24-.37.302-.547.062-.178.094-.372.094-.583 0-.432-.125-.758-.374-.979-.25-.221-.576-.331-.979-.331-.394 0-.742.11-1.044.331-.302.221-.641.562-1.015 1.022l-1.555-1.253c.25-.336.502-.634.756-.893s.528-.478.821-.655c.293-.178.617-.312.972-.403.355-.091.758-.137 1.21-.137.518 0 .991.074 1.418.223.427.149.792.358 1.094.626.302.269.538.595.706.979.168.384.252.811.252 1.282v.029c0 .422-.055.799-.166 1.13-.11.331-.274.643-.49.936-.216.293-.49.586-.821.878-.331.293-.722.612-1.174.958l-1.642 1.267h4.392v1.915h-7.459v-1.757zm15.427 1.93c-.672 0-1.284-.132-1.836-.396s-1.022-.629-1.411-1.094c-.389-.466-.689-1.015-.9-1.649-.211-.634-.317-1.315-.317-2.045v-.029c0-.73.108-1.411.324-2.045.216-.634.521-1.186.914-1.656.394-.47.866-.84 1.418-1.109.552-.269 1.164-.403 1.836-.403.662 0 1.27.132 1.822.396s1.022.629 1.411 1.094c.389.466.691 1.015.907 1.649.216.634.324 1.315.324 2.045v.029c0 .73-.108 1.411-.324 2.045-.216.634-.521 1.186-.914 1.656-.394.47-.866.84-1.418 1.109-.552.269-1.164.403-1.836.403zm.029-2.002c.336 0 .638-.079.907-.238.269-.158.499-.379.691-.662.192-.283.338-.619.439-1.008.101-.389.151-.814.151-1.274v-.029c0-.461-.053-.886-.158-1.274-.106-.389-.257-.727-.454-1.015-.197-.288-.43-.514-.698-.677-.269-.163-.571-.245-.907-.245-.326 0-.626.079-.9.238-.274.158-.504.379-.691.662-.187.283-.334.619-.439 1.008-.106.389-.158.814-.158 1.274v.029c0 .461.053.888.158 1.282.106.394.254.732.446 1.015.192.283.425.506.698.67.274.163.578.245.914.245zm9.725-6.077l-1.757.432-.461-1.814 2.894-.864h1.512v10.152h-2.189v-7.906zm7.997 0l-1.757.432-.461-1.814 2.894-.864h1.512v10.152h-2.189v-7.906z"/></g><g><g transform="translate(101)"><use fill="#AAB52A" xlink:href="#f"/><use fill="#000" filter="url(#g)" xlink:href="#f"/><use stroke="#062822" stroke-width=".64" xlink:href="#f"/></g><g transform="translate(101)"><use fill="#F9F6EF" xlink:href="#b"/><use fill="#000" filter="url(#h)" xlink:href="#b"/><use stroke="#062822" mask="url(#i)" stroke-width="3.84" xlink:href="#b"/></g><path d="M164.973 34.309c-.081.039-.952.94-1.23 1.968-.71 2.64-2.752 5.454-7.586 5.454h-1.642v4.453c0 1.382.775 2.263.775 2.263h-6.553s.749-.917.749-2.263v-7.601c0-1.093-1.02-2.04-1.102-2.077.082-.027 1.102-.992 1.102-2.123v-5.284c0-1.397-.788-2.27-.788-2.27h7.807c4.997 0 6.774 2.553 7.305 5.348.227 1.232 1.083 2.106 1.163 2.132zm-5.96 25.556h-25.642s1.471-1.796 1.471-4.417v-14.761c0-2.139-1.995-4.079-2.163-4.15.167-.054 2.163-1.94 2.163-4.148v-10.325c0-2.73-1.545-4.436-1.545-4.436h12.685s-1.318 1.706-1.318 4.436v10.325c0 2.208 1.991 4.094 2.154 4.148-.163.071-2.154 1.941-2.154 4.15v10.954h10.932c2.37 0 5.011-1.653 5.011-1.653l-1.593 9.877zm-30.731-23.359c-.085.037-1.103.946-1.103 2.04v7.638c0 1.388.788 2.262.788 2.262h-6.605s.788-.874.788-2.262v-7.555c0-1.131-1.019-2.086-1.104-2.123.084-.028 1.104-.993 1.104-2.123v-3.346h-3.716c-1.203 0-2.603.855-2.603.855l.862-5.065h15.941l.862 5.065s-1.398-.855-2.602-.855h-3.715v3.346c0 1.13 1.018 2.095 1.103 2.123z" fill="#062822"/><path d="M155.902 31.038h-1.386v6.479h1.435c1.519 0 3.048-.77 3.048-3.208 0-2.491-1.509-3.271-3.097-3.271" fill="#F9F6EF"/></g></g></svg></symbol>
<symbol id='icon-email' viewBox='0 0 32 32'><svg width="32" height="32" viewBox="0 0 32 32" xmlns="http://www.w3.org/2000/svg"><title id="icon-email-name">Email icon</title><path d="M16 0c-8.859 0-16 7.188-16 16 0 8.859 7.141 16 16 16 8.813 0 16-7.141 16-16 0-8.813-7.188-16-16-16zm0 17.406l-10-7.484c0-.703.563-1.25 1.266-1.25h17.469c.703 0 1.266.547 1.266 1.25l-10 7.484zm10 4.672c0 .703-.563 1.25-1.266 1.25h-17.469c-.703 0-1.266-.547-1.266-1.25v-9.563l10 7.484 10-7.484v9.563z" fill="#7D8D39"/></svg></symbol>
<symbol id='icon-github' viewBox='0 0 32 32'><svg width="32" height="32" viewBox="0 0 32 32" xmlns="http://www.w3.org/2000/svg"><title id="icon-github-name">Github Icon</title><path d="M16 0c-8.859 0-16 7.188-16 16 0 7.438 5.109 13.734 12 15.516v-3.219c-5.031-1.516-6.375-5.328-6.438-5.484-.047-.188.031-.406.219-.516.141-.109.359-.078.516.078.031 0 2.734 2.656 6.078 2.594.25-.672.656-1.344 1.297-1.828-4.297-.656-7.672-3.172-7.672-7.141 0-1.625.672-3.266 1.859-4.594-.375-1.516-.531-3.375.141-4.734 1.703.141 3.375 1 4.625 1.766 1.047-.25 2.156-.438 3.375-.438 1.219 0 2.328.188 3.375.438 1.25-.766 2.922-1.625 4.625-1.766.672 1.359.484 3.219.141 4.734 1.188 1.328 1.859 2.969 1.859 4.594 0 3.969-3.375 6.484-7.672 7.141 1.344 1.047 1.672 2.891 1.672 4.188v4.188c6.891-1.781 12-8.078 12-15.516 0-8.813-7.188-16-16-16z" fill="#7D8D39"/></svg></symbol>
<symbol id='icon-linkedin' viewBox='0 0 32 32'><svg width="32" height="32" viewBox="0 0 32 32" xmlns="http://www.w3.org/2000/svg"><title id="icon-linkedin-name">LinkedIn icon</title><path d="M16 0c-8.859 0-16 7.141-16 16s7.141 16 16 16 16-7.141 16-16-7.141-16-16-16zm-6.672 10.672h-.031c-1.594 0-2.625-1.047-2.625-2.344 0-1.328 1.063-2.328 2.656-2.328 1.641 0 2.641 1 2.672 2.328 0 1.297-1.031 2.344-2.672 2.344zm2 13.328h-4v-11.328h4v11.328zm14.672 0h-4v-6c0-2.031-.813-2.672-2.031-2.672-1.234 0-1.969 1.047-1.969 2.672v6h-4v-8.672s-.078-2.219-.109-2.656h3.969l.141 1.734c.516-1.438 1.703-2.406 3.328-2.406 2.859 0 4.672 2.328 4.672 6v6z" fill="#7D8D39"/></svg></symbol>
<symbol id='icon-twitter' viewBox='0 0 32 32'><svg width="32" height="32" viewBox="0 0 32 32" xmlns="http://www.w3.org/2000/svg"><title id="icon-twitter-name">Twitter icon</title><path d="M16 0c-8.859 0-16 7.141-16 16s7.141 16 16 16 16-7.141 16-16-7.141-16-16-16zm9.734 12.484v.594c0 6-4.547 12.922-12.922 12.922-2.547 0-4.953-.703-6.953-2 .328.031.703.078 1.063.078 2.156 0 4.078-.859 5.641-2.078-1.969-.031-3.672-1.266-4.234-3.078.266.047.563.078.859.078.406 0 .813-.031 1.188-.141-2.078-.453-3.641-2.266-3.641-4.484v-.047c.594.344 1.297.563 2.047.563-1.219-.813-2-2.188-2-3.781 0-.813.219-1.594.594-2.297 2.25 2.781 5.625 4.594 9.406 4.781-.078-.328-.109-.703-.109-1.031 0-2.531 2-4.563 4.516-4.563 1.297 0 2.484.563 3.297 1.438 1.031-.219 1.953-.578 2.844-1.109-.328 1.078-1 1.969-1.953 2.531.922-.125 1.813-.375 2.625-.719-.625.891-1.375 1.719-2.266 2.344z" fill="#7D8D39"/></svg></symbol>
<symbol id='tlp-logo-badge' viewBox='0 0 62 60'><svg width="62" height="60" viewBox="0 0 62 60" xmlns="http://www.w3.org/2000/svg" xmlns:xlink="http://www.w3.org/1999/xlink"><title id="icon-tlp-badge-name">The Last Pickle Badge</title><defs><path d="M47.628 47.58c-4.743 4.766-11.049 7.39-17.757 7.39-6.707 0-13.011-2.625-17.753-7.39-4.743-4.765-7.355-11.101-7.355-17.841 0-6.739 2.612-13.075 7.355-17.841 4.743-4.765 11.047-7.389 17.753-7.389 6.708 0 13.014 2.625 17.757 7.389 4.743 4.766 7.354 11.102 7.354 17.841 0 6.74-2.612 13.076-7.354 17.841m12.333-17.821c-.005-2.2-2.405-4.115-2.888-6.208-.491-2.128.817-4.907-.125-6.852-.946-1.954-3.931-2.638-5.283-4.335-1.346-1.688-1.359-4.767-3.062-6.124-1.675-1.336-4.655-.655-6.631-1.601-1.915-.917-3.254-3.686-5.41-4.173-2.156-.488-4.545 1.438-6.666 1.442-2.19.004-4.592-1.895-6.675-1.409-2.117.495-3.442 3.271-5.377 4.216-1.945.95-4.935.283-6.622 1.641-1.679 1.353-1.683 4.427-3.034 6.138-1.33 1.683-4.315 2.38-5.258 4.366-.913 1.923.413 4.687-.071 6.854-.485 2.166-2.863 4.093-2.859 6.224.005 2.2 2.406 4.115 2.89 6.208.491 2.128-.817 4.907.124 6.852.947 1.954 3.932 2.638 5.284 4.334 1.346 1.688 1.358 4.766 3.061 6.125 1.676 1.336 4.657.654 6.632 1.601 1.915.917 3.253 3.687 5.41 4.174 2.155.488 4.545-1.438 6.667-1.442 2.189-.005 4.59 1.894 6.674 1.408 2.118-.494 3.442-3.27 5.377-4.216 1.946-.95 4.935-.282 6.623-1.641 1.68-1.351 1.683-4.427 3.035-6.137 1.33-1.684 4.315-2.381 5.257-4.366.912-1.923-.413-4.688.073-6.855.483-2.167 2.862-4.093 2.857-6.224z" id="b"/><filter x="-50%" y="-50%" width="200%" height="200%" filterUnits="objectBoundingBox" id="c"><feGaussianBlur stdDeviation="1" in="SourceAlpha" result="shadowBlurInner1"/><feOffset dy="1" in="shadowBlurInner1" result="shadowOffsetInner1"/><feComposite in="shadowOffsetInner1" in2="SourceAlpha" operator="arithmetic" k2="-1" k3="1" result="shadowInnerInner1"/><feColorMatrix values="0 0 0 0 0.490196078 0 0 0 0 0.552941176 0 0 0 0 0.223529412 0 0 0 1 0" in="shadowInnerInner1"/></filter><path d="M6.229 29.739c0 13.1 10.606 23.757 23.643 23.757 13.038 0 23.645-10.657 23.645-23.757 0-13.099-10.607-23.757-23.645-23.757-13.037 0-23.643 10.657-23.643 23.757z" id="a"/><filter x="-50%" y="-50%" width="200%" height="200%" filterUnits="objectBoundingBox" id="d"><feGaussianBlur stdDeviation="4" in="SourceAlpha" result="shadowBlurInner1"/><feOffset in="shadowBlurInner1" result="shadowOffsetInner1"/><feComposite in="shadowOffsetInner1" in2="SourceAlpha" operator="arithmetic" k2="-1" k3="1" result="shadowInnerInner1"/><feColorMatrix values="0 0 0 0 0.68627451 0 0 0 0 0.670588235 0 0 0 0 0.580392157 0 0 0 1 0" in="shadowInnerInner1"/></filter><mask id="e" x="-1.92" y="-1.92" width="51.128" height="51.354"><path fill="#fff" d="M4.309 4.062h51.128v51.354h-51.128z"/><use xlink:href="#a"/></mask></defs><g fill="none"><g transform="translate(-613) translate(614)"><use fill="#AAB52A" xlink:href="#b"/><use fill="#000" filter="url(#c)" xlink:href="#b"/><use stroke="#062822" stroke-width=".64" xlink:href="#b"/></g><g transform="translate(-613) translate(614)"><use fill="#F9F6EF" xlink:href="#a"/><use fill="#000" filter="url(#d)" xlink:href="#a"/><use stroke="#062822" mask="url(#e)" stroke-width="3.84" xlink:href="#a"/></g><path d="M48.98 26.057c-.06.029-.714.714-.922 1.494-.533 2.005-2.064 4.143-5.69 4.143h-1.231v3.382c0 1.05.581 1.719.581 1.719h-4.915s.562-.697.562-1.719v-5.773c0-.83-.765-1.55-.827-1.578.062-.021.827-.754.827-1.612v-4.013c0-1.061-.591-1.724-.591-1.724h5.855c3.748 0 5.08 1.939 5.478 4.061.17.936.812 1.599.872 1.619zm-4.47 19.41h-19.232s1.103-1.364 1.103-3.355v-11.211c0-1.624-1.497-3.098-1.622-3.152.125-.041 1.622-1.474 1.622-3.15v-7.841c0-2.074-1.159-3.369-1.159-3.369h9.513s-.989 1.295-.989 3.369v7.841c0 1.677 1.493 3.109 1.615 3.15-.122.054-1.615 1.474-1.615 3.152v8.32h8.199c1.777 0 3.758-1.255 3.758-1.255l-1.195 7.502zm-23.048-17.741c-.063.028-.827.719-.827 1.549v5.801c0 1.054.591 1.718.591 1.718h-4.953s.591-.664.591-1.718v-5.738c0-.859-.765-1.585-.828-1.613.063-.021.828-.754.828-1.612v-2.541h-2.787c-.902 0-1.952.649-1.952.649l.647-3.847h11.956l.646 3.847s-1.048-.649-1.952-.649h-2.786v2.541c0 .858.764 1.591.827 1.612z" fill="#062822"/><path d="M42.176 23.573h-1.04v4.921h1.077c1.14 0 2.286-.585 2.286-2.437 0-1.892-1.132-2.484-2.323-2.484" fill="#F9F6EF"/></g></svg></symbol>
<symbol id='tlp-logo-full' viewBox='0 0 604 73'><svg width="604" height="73" viewBox="0 0 604 73" xmlns="http://www.w3.org/2000/svg"><title id="icon-tlp-logo-name">The Last Pickel Logo</title><g fill="none"><path d="M131.04 67.933h-34.528c-.64 1.587-1.403 2.533-1.403 2.533h39.567l2.459-15.364s-1.953 1.227-4.364 1.986l-1.731 10.845z" fill="#B2BB1D"/><path d="M108.894 25.191c0 3.436 3.07 6.367 3.324 6.451-.254.114-3.324 3.019-3.324 6.454v17.041h3.64v-14.508c0-3.435 3.073-6.34 3.325-6.454-.253-.084-3.325-3.016-3.325-6.451v-16.064c0-4.245 2.04-6.9 2.04-6.9h-4.921c-.409 1.136-.759 2.613-.759 4.368v16.063z" fill="#B2BB1D"/><path d="M191.277 63.482l-4.466-22.293c-.674-3.38 1.758-6.843 1.98-7.013-.249-.026-3.879-2.289-4.551-5.668l-3.408-16.958c-.836-4.191.867-6.788.867-6.788h-4.548c-.218 1.11-.3 2.548.039 4.254l3.411 16.958c.668 3.38 4.301 5.643 4.55 5.67-.224.168-2.652 3.632-1.98 7.013l4.466 22.292c.808 4.079 3.881 6.984 3.881 6.984h-15.342c-.265 1.598-.786 2.535-.786 2.535h19.769s-3.071-2.906-3.881-6.985" fill="#B2BB1D"/><path fill="#B2BB1D" d="M164.933 18.933l-.195-3.38-.17 3.407-3.374 22.322h4.021l1.588-10.482z"/><path d="M158.569 54.047l-1.507 7.545c-.476 2.375-.227 4.719.865 6.34h-14.196c-1.003 1.58-1.992 2.535-1.992 2.535h19.828c-1.09-1.622-1.339-3.966-.866-6.342l1.507-7.545h9.319l-.507-2.533h-12.452z" fill="#B2BB1D"/><path d="M211.647 20.077c0 2.613 2.584 4.654 5.152 5.882-.908-.967-1.511-2.09-1.511-3.349 0-4.104 4.3-5.781 9.403-5.864 4.941-.082 9.744 2.204 12.897 4.12-.261-.216-8.213-6.792-16.535-6.654-5.11.084-9.407 1.759-9.407 5.864" fill="#B2BB1D"/><path d="M237.004 34.697c3.367 3.025 5.048 7.199 5.048 13.709 0 10.978-9.546 20.954-24.124 20.954-9.942 0-10.641-2.35-14.518-2.35-.862 0-1.642.142-2.338.357v4.775s2.262-2.6 5.976-2.6c3.879 0 4.577 2.35 14.523 2.35 14.573 0 24.122-9.974 24.122-20.952 0-8.542-2.886-13.068-8.691-16.242" fill="#B2BB1D"/><path d="M230.857 30.945l.401.185c-1.251-1.402-1.747-2.775-1.728-2.931-.076.093-.728.383-1.658.666.747.775 1.724 1.534 2.985 2.079" fill="#B2BB1D"/><path d="M219.855 42.764c-1.905-.687-4.025-.311-5.467.142 1.336 1.488 1.951 3.105 1.935 3.257.191-.196 3.989-2.013 7.172-.867.686.25 1.332.5 1.928.761-1.085-1.468-3.054-2.378-5.568-3.293" fill="#B2BB1D"/><path d="M208.351 38.517c-.758-.37-1.496-.762-2.217-1.179 1.409 1.194 2.99 2.213 4.678 3.111-.642-.731-1.457-1.438-2.461-1.932" fill="#B2BB1D"/><path d="M241.254 23.421v-19.442s-1.878 1.222-3.64 1.578v15.326c2.235 1.363 3.64 2.539 3.64 2.539" fill="#B2BB1D"/><path d="M201.073 49.43v1.164c.78.602 1.701 1.217 2.754 1.807-1.886-1.632-2.754-2.971-2.754-2.971" fill="#B2BB1D"/><path d="M295.785 4.761l2.17 12.86s-4.216-2.6-7.847-2.6h-11.198v10.17c0 3.435 3.074 6.367 3.323 6.451-.249.114-3.323 2.879-3.323 6.202v23.214c0 4.219 2.375 6.873 2.375 6.873h-14.777c-.676 1.611-1.493 2.535-1.493 2.535h19.913s-2.38-2.655-2.38-6.874v-23.213c0-3.324 3.075-6.09 3.324-6.205-.249-.082-3.324-3.015-3.324-6.451v-10.169h11.2c3.631 0 7.847 2.598 7.847 2.598l-2.597-15.392h-3.215z" fill="#B2BB1D"/><path d="M252.551 15.022c-1.14 0-2.336.257-3.444.608l-.759 4.523s4.214-2.598 7.843-2.598h7.556v-2.533h-11.195z" fill="#B2BB1D"/><path d="M338.526 17.556h4.189c1.282 0 2.546.178 3.71.577-1.771-2.263-4.516-3.111-7.352-3.111h-4.186v19.694h3.639v-17.16z" fill="#B2BB1D"/><path d="M366.534 21.02c-1.024-5.461-3.624-10.609-9.337-13.598 3.24 2.978 4.918 6.931 5.695 11.065.697 3.743 3.265 6.398 3.52 6.481-.255.112-2.877 2.85-3.715 5.978-2.153 8.019-8.294 16.566-22.868 16.566h-4.944v13.548c0 4.192 2.343 6.874 2.343 6.874h-14.726c-.639 1.586-1.399 2.533-1.399 2.533h19.767s-2.347-2.682-2.347-6.874v-13.55h4.946c14.577 0 20.718-8.546 22.868-16.564.838-3.13 3.461-5.867 3.715-5.978-.254-.082-2.821-2.738-3.519-6.481" fill="#B2BB1D"/><path d="M392.819 27.724v-16.064c0-4.218 2.373-6.899 2.373-6.899h-5.127c-.481 1.137-.886 2.616-.886 4.366v16.063c0 3.436 3.069 6.369 3.319 6.452-.25.112-3.319 3.073-3.319 6.398v23.018c0 4.219 2.371 6.873 2.371 6.873h-14.776c-.676 1.611-1.493 2.533-1.493 2.533h19.91s-2.373-2.655-2.373-6.874v-23.015c0-3.326 3.071-6.287 3.319-6.401-.247-.082-3.319-3.015-3.319-6.451" fill="#B2BB1D"/><path d="M442.024 67.822c-1.954 0-4.216 1.227-12.843 1.227-5.151 0-9.983-1.059-14.145-3.396 4.855 4.124 11.048 5.929 17.782 5.929 8.63 0 10.892-1.227 12.846-1.227 2.82 0 4.27 1.732 4.27 1.732v-21.204c-.963 1.445-2.03 2.878-3.64 4.072v14.599s-1.451-1.732-4.27-1.732" fill="#B2BB1D"/><path d="M430.714 14.687c-4.72 0-10.221 2.067-12.65 9.555-1.284 3.968 1.676 7.318 1.927 7.401-.251.112-3.517 3.047-3.293 6.315.696 10.132 4.36 14.593 8.488 16.376-2.478-2.577-4.366-6.862-4.851-13.844-.222-3.267 3.046-6.201 3.298-6.315-.253-.082-3.212-3.432-1.93-7.4 2.43-7.488 7.929-9.555 12.65-9.555 4.42 0 7.47.639 9.706 1.649-2.308-2.362-5.882-4.183-13.346-4.183" fill="#B2BB1D"/><path d="M446.294 4.743v15.431c1.609 1.192 2.675 2.628 3.639 4.085v-21.202s-1.243 1.453-3.639 1.686" fill="#B2BB1D"/><path d="M472.134 44.272v16.787c0 4.192 2.343 6.873 2.343 6.873h-14.728c-.638 1.587-1.401 2.533-1.401 2.533h19.773s-2.347-2.681-2.347-6.873v-16.787l2.454-3.649-1.904-5.115-4.189 6.231z" fill="#B2BB1D"/><path d="M505.875 65.828l-16.028-39.781 11.392-16.872c1.007-1.48 4.19-3.436 5.808-4.414h-7.471c-.843.642-1.581 1.298-1.977 1.879l-11.394 16.874 16.03 39.781c.699 1.705 3.321 3.688 4.717 4.638h-17.297c-.295.884-.989 1.887-1.426 2.533h22.363c-1.394-.95-4.017-2.934-4.717-4.638" fill="#B2BB1D"/><path d="M472.134 22.23l3.639-5.576v-4.882c0-4.104 2.263-7.011 2.263-7.011h-5.013c-.473 1.184-.889 2.719-.889 4.477v12.991z" fill="#B2BB1D"/><path d="M550.603 67.933h-34.523c-.639 1.587-1.404 2.533-1.404 2.533h39.569l2.457-15.364s-1.951 1.227-4.363 1.986l-1.736 10.845z" fill="#B2BB1D"/><path d="M528.463 25.191c0 3.436 3.071 6.367 3.32 6.451-.249.114-3.32 3.019-3.32 6.454v17.041h3.643v-14.508c0-3.435 3.07-6.34 3.319-6.454-.249-.084-3.319-3.016-3.319-6.451v-16.064c0-4.245 2.036-6.9 2.036-6.9h-4.921c-.409 1.136-.758 2.613-.758 4.368v16.063z" fill="#B2BB1D"/><path d="M586.819 37.816h-11.198v17.321h3.64v-14.788h11.2c2.566 0 5.472 1.733 5.472 1.733v-16.341s-1.599 1.123-3.642 1.602v12.206s-2.904-1.733-5.474-1.733" fill="#B2BB1D"/><path d="M590.224 15.022h-14.603v10.001h3.642v-7.468h14.604c3.881 0 6.787 2.372 6.787 2.372v-15.166h-3.643v12.633s-2.905-2.373-6.787-2.373" fill="#B2BB1D"/><path d="M599.612 57.088l-1.734 10.845h-34.64c-.639 1.587-1.397 2.533-1.397 2.533h39.678l2.457-15.364s-1.95 1.227-4.363 1.986" fill="#B2BB1D"/><path d="M132.772 57.088c-1.074.338-2.242.584-3.371.584h-16.866v-2.535h-3.64v-17.04c0-3.436 3.071-6.342 3.324-6.454-.253-.084-3.324-3.016-3.324-6.452v-16.063c0-1.755.35-3.232.759-4.368h-14.653s2.373 2.655 2.373 6.9v16.064c0 3.435-3.073 6.369-3.32 6.451.247.114 3.32 3.131 3.32 6.455v22.961c0 1.711-.399 3.193-.861 4.341h34.528l1.731-10.845z" fill="#052722"/><path d="M176.087 63.704l-1.426-7.124h-3.135l.922 4.591c.808 4.08-.7 6.762-.7 6.762h4.427c.186-1.117.245-2.551-.088-4.229" fill="#052722"/><path d="M164.833 43.815l.382-2.533h-4.02l3.374-22.322.17-3.407.193 3.38 1.87 11.867 1.407-9.306.17-3.408.195 3.381 3.521 22.349h-7.263zm22.803 17.133l-4.466-22.292c-.673-3.381 1.755-6.846 1.98-7.013-.247-.027-3.882-2.29-4.55-5.67l-3.409-16.958c-.339-1.706-.258-3.144-.041-4.254h-21.949s1.7 2.597.865 6.788l-3.406 16.985c-.643 3.213-4.328 5.616-4.55 5.641.222.17 2.65 3.634 1.982 6.986l-4.497 22.32c-.359 1.744-1.116 3.271-1.865 4.45h14.197c-1.093-1.621-1.342-3.965-.866-6.342l1.507-7.543h12.452l.507 2.532h3.135l1.426 7.124c.332 1.678.274 3.113.089 4.229h15.341s-3.071-2.906-3.881-6.984z" fill="#052722"/><path d="M234.499 33.479c.889.385 1.72.789 2.505 1.218-1.553-1.395-3.47-2.548-5.745-3.568.773.867 1.832 1.741 3.24 2.35" fill="#052722"/><path d="M222.324 29.261c1.632.543 3.979.084 5.548-.395-1.435-1.492-2.003-3.036-1.984-3.2-.199.25-4.608 1.928-7.205 1.061-.6-.201-1.24-.461-1.885-.768 1.449 1.544 3.689 2.682 5.525 3.301" fill="#052722"/><path d="M211.994 41.049c-.4-.195-.793-.395-1.182-.602 1.29 1.467 1.886 3.034 1.87 3.182.073-.08.739-.419 1.705-.723-.631-.706-1.424-1.38-2.393-1.857" fill="#052722"/><path d="M217.928 69.359c14.577 0 24.125-9.974 24.125-20.954 0-6.511-1.682-10.684-5.05-13.709-.784-.427-1.615-.833-2.504-1.218-1.408-.607-2.467-1.483-3.242-2.348l-.401-.185c-1.259-.545-2.238-1.305-2.985-2.079-1.569.479-3.916.938-5.548.395-1.836-.618-4.077-1.756-5.525-3.301-2.567-1.227-5.151-3.269-5.151-5.882 0-4.106 4.296-5.781 9.406-5.864 8.324-.138 16.274 6.438 16.536 6.654l.023.015v-15.325c-.3.059-.596.097-.878.097-1.985 0-7.598-1.956-13.518-1.956-11.169 0-23.176 7.209-23.176 19.891 0 6.412 2.459 10.669 6.093 13.748.722.416 1.461.808 2.217 1.179 1.004.493 1.819 1.2 2.461 1.932.389.207.782.407 1.182.602.969.476 1.762 1.152 2.394 1.856 1.442-.454 3.562-.829 5.467-.142 2.515.914 4.483 1.824 5.568 3.292 2.811 1.221 4.578 2.679 4.578 5.582 0 4.832-4.718 6.592-9.017 6.592-8.722 0-14.201-3.273-17.158-5.826-1.053-.591-1.973-1.207-2.754-1.807v16.772c.696-.215 1.476-.357 2.338-.357 3.877 0 4.577 2.348 14.518 2.348" fill="#052722"/><path d="M278.91 61.059v-23.214c0-3.323 3.074-6.089 3.323-6.202-.249-.084-3.323-3.016-3.323-6.451v-10.17h11.198c3.632 0 7.848 2.6 7.848 2.6l-2.171-12.86h-44.841l-1.838 10.87c1.109-.353 2.304-.61 3.444-.61h11.195v2.533h3.643v10.169c0 3.436-3.073 6.369-3.32 6.451.247.115 3.32 3.02 3.32 6.455v22.963c0 1.74-.404 3.209-.88 4.339h14.777s-2.375-2.654-2.375-6.873" fill="#052722"/><path d="M334.886 15.022h4.187c2.835 0 5.581.848 7.351 3.111 3.181 1.081 5.618 3.83 5.618 9.367 0 7.403-4.608 9.751-9.188 9.751h-4.329v-2.535h-3.639v-19.694zm0 46.037v-13.55h4.944c14.574 0 20.716-8.545 22.868-16.566.838-3.128 3.459-5.864 3.715-5.978-.255-.082-2.823-2.736-3.52-6.479-.777-4.134-2.455-8.087-5.695-11.066-3.177-1.659-7.293-2.659-12.665-2.659h-23.541s2.375 2.655 2.375 6.899v16.064c0 3.436-3.075 6.369-3.323 6.451.247.114 3.323 2.992 3.323 6.315v23.102c0 1.711-.4 3.194-.863 4.341h14.726s-2.343-2.682-2.343-6.873z" fill="#052722"/><path d="M389.178 61.059v-23.018c0-3.324 3.069-6.285 3.319-6.398-.25-.084-3.319-3.016-3.319-6.451v-16.064c0-1.749.407-3.228.886-4.366h-14.784s2.375 2.681 2.375 6.898v16.064c0 3.436-3.073 6.369-3.321 6.451.249.115 3.321 3.02 3.321 6.455v22.963c0 1.74-.404 3.209-.882 4.339h14.776s-2.371-2.654-2.371-6.873" fill="#052722"/><path d="M445.665 4.789c-1.954 0-4.216-1.257-12.846-1.257-12.175 0-24.124 6.006-27.277 24.193-.561 3.212-3.774 6.451-3.774 6.451s2.824 3.102 3.016 6.538c.711 12.079 4.562 20.105 10.253 24.94 4.162 2.337 8.992 3.396 14.145 3.396 8.628 0 10.888-1.227 12.843-1.227 2.819 0 4.27 1.732 4.27 1.732v-14.599c-2.339 1.738-5.837 2.967-11.939 2.967-3.048 0-6.458-.775-9.168-3.589-4.129-1.782-7.794-6.243-8.49-16.375-.224-3.267 3.042-6.202 3.294-6.314-.253-.084-3.211-3.434-1.928-7.401 2.43-7.488 7.93-9.555 12.652-9.555 7.464 0 11.037 1.821 13.345 4.183.855.385 1.588.825 2.235 1.305v-15.431c-.207.019-.408.046-.63.046" fill="#052722"/><path d="M502.234 63.295l-16.028-39.781 11.392-16.874c.396-.581 1.134-1.237 1.977-1.879h-14.03c.531.865 1.484 2.766.755 3.884l-10.527 16.118v-8.108l-3.639 5.575v-12.991c0-1.759.415-3.293.889-4.477h-14.788s2.375 2.681 2.375 6.9v15.895c0 3.438-3.074 6.536-3.321 6.619.247.115 3.321 2.963 3.321 6.26v23.157c0 1.711-.4 3.193-.862 4.341h14.728s-2.343-2.682-2.343-6.874v-16.787l4.187-6.231 1.904 5.117 1.739-2.582 9.769 26.231c.116.314.061.708-.08 1.126h17.297c-1.396-.95-4.017-2.934-4.717-4.638" fill="#052722"/><path d="M552.339 57.088c-1.077.338-2.244.584-3.37.584h-16.863v-2.535h-3.643v-17.04c0-3.436 3.073-6.342 3.32-6.454-.247-.084-3.32-3.016-3.32-6.452v-16.063c0-1.755.349-3.232.758-4.368h-14.655s2.375 2.655 2.375 6.9v16.064c0 3.435-3.073 6.369-3.323 6.451.25.114 3.323 3.131 3.323 6.455v22.961c0 1.711-.399 3.193-.861 4.341h34.523l1.736-10.845z" fill="#052722"/><path d="M599.612 57.088c-1.076.338-2.244.584-3.374.584h-16.977v-2.535h-3.64v-17.321h11.198c2.571 0 5.474 1.733 5.474 1.733v-12.205c-.549.127-1.127.212-1.719.212h-11.313v-2.533h-3.64v-10.001h14.603c3.882 0 6.787 2.372 6.787 2.372v-12.634h-35.282s2.371 2.71 2.371 6.9v16.064c0 3.435-3.073 6.369-3.324 6.451.251.114 3.324 3.019 3.324 6.455v22.961c0 1.711-.397 3.193-.862 4.341h34.64l1.734-10.845z" fill="#052722"/><path d="M53.875 25.129v-6.619c0-1.721-.972-2.82-.972-2.82h15.976v6.225s-1.182-.976-2.771-.976h-5.999v6.045c.8-1.18 1.853-1.641 3.09-1.652 2.392-.032 5.298 1.242 7.386-.412.536 2.648-1.057 5.436-3.92 5.436-2.059 0-4.439-1.183-6.556-.184v7.239h6.966c1.503 0 3.177-1.069 3.177-1.069l-1.009 6.319h-16.29s.924-1.145.924-2.823v-9.422c0-1.413-1.255-2.606-1.357-2.651.101-.038 1.357-1.269 1.357-2.636" fill="#B2BB1D"/><path d="M20.79 37.219v14.028c0 2.551 1.439 4.153 1.439 4.153h-12.037s1.436-1.602 1.436-4.153v-13.874c0-2.085-1.861-3.838-2.012-3.901.151-.051 2.012-1.826 2.012-3.903v-6.146h-6.77c-2.2 0-4.74 1.57-4.74 1.57l1.562-9.303h36.128s-.982 1.1-.982 2.832v6.524h6.476v-6.524c0-1.732-.974-2.832-.974-2.832h8.179s-.976 1.1-.976 2.832v6.627c0 1.368 1.257 2.579 1.361 2.617-.104.045-1.361 1.237-1.361 2.65v9.424c0 1.733.976 2.823.976 2.823h-8.179s.974-1.09.974-2.823v-9.54h-6.476v9.54c0 1.733.982 2.823.982 2.823h-8.176s.974-1.09.974-2.823v-14.943c-.172-.256-1.076-1.472-3.051-1.472h-6.766v6.146c0 2.076 1.862 3.851 2.007 3.903-.145.064-2.007 1.736-2.007 3.747" fill="#B2BB1D"/><path d="M59.919 55.035c-4.106 0-23.686-2.322-27.772-2.322-2.859 0-5.367 2.266-5.367 2.266 2.482-6.52 7.312-8.294 12.011-8.294 2.984 0 26.176 2.275 27.969 2.275 3.188 0 4.558-1.772 4.558-1.772s.249 7.848-11.399 7.848" fill="#B2BB1D"/><path d="M129.4 57.672c1.13 0 2.297-.246 3.371-.584l.72-4.521s-4.074 2.57-7.732 2.57h-13.224v2.535h16.865z" fill="#324037"/><path d="M97.373 40.63c0-3.323-3.071-6.34-3.32-6.455.249-.082 3.32-3.015 3.32-6.451v-16.064c0-4.243-2.373-6.899-2.373-6.899h14.653c.58-1.614 1.282-2.533 1.282-2.533h-19.577s2.373 2.652 2.373 6.9v16.064c0 3.435-3.073 6.367-3.319 6.451.246.114 3.319 3.13 3.319 6.454v22.963c0 4.079-2.262 6.873-2.262 6.873h5.043c.462-1.146.861-2.629.861-4.341v-22.961z" fill="#324037"/><path d="M150.092 41.161c.668-3.353-1.761-6.816-1.982-6.985.222-.027 3.906-2.428 4.55-5.641l3.406-16.986c.835-4.191-.865-6.788-.865-6.788h21.949c.312-1.615.908-2.533.908-2.533h-26.499s1.701 2.598.866 6.788l-3.408 16.986c-.643 3.213-4.328 5.614-4.55 5.641.222.168 2.652 3.632 1.984 6.985l-4.497 22.32c-.839 4.079-3.856 6.985-3.856 6.985h5.632c.749-1.179 1.505-2.708 1.865-4.452l4.497-22.32z" fill="#324037"/><path fill="#324037" d="M168.38 18.086l-.17 3.408-1.407 9.306 1.65 10.482h-3.238l-.382 2.533h7.263l-3.521-22.349z"/><path d="M197.433 46.897v22.711s1.336-1.53 3.64-2.24v-16.774c-2.511-1.943-3.64-3.697-3.64-3.697" fill="#324037"/><path d="M230.001 51.638c0-2.902-1.767-4.362-4.578-5.582.603.812.938 1.794.938 3.048 0 4.832-4.717 6.592-9.018 6.592-5.936 0-10.352-1.521-13.515-3.294 2.955 2.555 8.434 5.828 17.157 5.828 4.3 0 9.017-1.76 9.017-6.592" fill="#324037"/><path d="M200.04 23.589c0-12.682 12.008-19.891 23.176-19.891 5.92 0 11.534 1.956 13.518 1.956.282 0 .578-.038.88-.097v-4.111s-2.569 1.676-4.52 1.676c-1.985 0-7.598-1.956-13.518-1.956-11.171 0-23.178 7.207-23.178 19.891 0 8.38 4.204 13.082 9.736 16.28-3.635-3.08-6.094-7.336-6.094-13.748" fill="#324037"/><path d="M295.785 4.761l-.427-2.533h-48.059l-2.594 15.394s1.985-1.223 4.402-1.99l1.836-10.87h44.842z" fill="#324037"/><path d="M267.388 40.63c0-3.436-3.071-6.34-3.32-6.455.249-.082 3.32-3.015 3.32-6.451v-10.169h-3.642v7.637c0 3.435-3.07 6.367-3.32 6.451.25.114 3.32 3.017 3.32 6.454v22.963c0 4.219-2.371 6.873-2.371 6.873h5.135c.474-1.13.878-2.6.878-4.341v-22.961z" fill="#324037"/><path d="M339.214 34.717h-.689v2.535h4.329c4.581 0 9.188-2.348 9.188-9.751 0-5.537-2.439-8.287-5.618-9.367 1.216 1.548 1.977 3.755 1.977 6.834 0 7.404-4.608 9.75-9.187 9.75" fill="#324037"/><path d="M323.366 40.49c0-3.323-3.074-6.201-3.323-6.314.249-.082 3.323-3.016 3.323-6.451v-16.064c0-4.245-2.375-6.9-2.375-6.9h23.541c5.374 0 9.49 1.002 12.665 2.66-3.42-3.14-8.579-5.194-16.307-5.194h-23.538s2.373 2.654 2.373 6.901v16.063c0 3.436-3.074 6.369-3.323 6.452.249.112 3.323 2.99 3.323 6.313v23.102c0 4.08-2.262 6.874-2.262 6.874h5.04c.463-1.148.863-2.629.863-4.341v-23.102z" fill="#324037"/><path d="M377.656 40.63c0-3.436-3.071-6.34-3.321-6.455.25-.082 3.321-3.015 3.321-6.451v-16.064c0-4.218-2.375-6.899-2.375-6.899h14.785c.673-1.61 1.484-2.533 1.484-2.533h-19.91s2.377 2.681 2.377 6.9v16.064c0 3.435-3.075 6.367-3.324 6.451.249.114 3.324 3.017 3.324 6.454v22.963c0 4.219-2.377 6.873-2.377 6.873h5.136c.477-1.13.881-2.6.881-4.341v-22.961z" fill="#324037"/><path d="M404.783 40.713c-.193-3.435-3.016-6.538-3.016-6.538s3.213-3.239 3.774-6.451c3.154-18.186 15.103-24.193 27.277-24.193 8.63 0 10.892 1.257 12.846 1.257.222 0 .422-.026.63-.046v-4.219s-1.453 1.733-4.27 1.733c-1.955 0-4.217-1.257-12.843-1.257-12.179 0-24.129 6.005-27.283 24.193-.559 3.212-3.771 6.451-3.771 6.451s2.82 3.102 3.016 6.538c.85 14.501 6.231 23.167 13.893 27.472-5.691-4.834-9.544-12.862-10.253-24.94" fill="#324037"/><path d="M434.355 57.922c6.102 0 9.6-1.23 11.939-2.967v-6.605c-2.373 3.546-5.277 7.038-15.58 7.038-1.789 0-3.702-.266-5.528-1.054 2.711 2.815 6.12 3.589 9.168 3.589" fill="#324037"/><path d="M446.294 21.725v-1.551c-.647-.48-1.38-.921-2.234-1.306.88.898 1.582 1.872 2.234 2.856" fill="#324037"/><path d="M460.611 40.435c0-3.296-3.074-6.146-3.321-6.259.247-.082 3.321-3.182 3.321-6.619v-15.896c0-4.219-2.375-6.9-2.375-6.9h14.788c.632-1.58 1.369-2.533 1.369-2.533h-19.797s2.374 2.681 2.374 6.901v15.895c0 3.436-3.073 6.536-3.32 6.62.247.112 3.32 2.961 3.32 6.258v23.157c0 4.08-2.262 6.874-2.262 6.874h5.04c.463-1.148.863-2.629.863-4.341v-23.157z" fill="#324037"/><path d="M489.734 66.806l-9.769-26.23-1.739 2.581 7.867 21.116c.363.977-.863 2.709-1.505 3.659h5.067c.141-.418.196-.812.08-1.126" fill="#324037"/><path d="M486.3 8.644c.728-1.118-.224-3.019-.755-3.884h14.03c1.297-.987 2.848-1.941 3.829-2.533h-21.499c.53.867 1.48 2.767.754 3.883l-6.886 10.544v8.108l10.527-16.118z" fill="#324037"/><path d="M516.941 40.63c0-3.323-3.071-6.34-3.323-6.455.251-.082 3.323-3.015 3.323-6.451v-16.064c0-4.243-2.375-6.899-2.375-6.899h14.655c.582-1.614 1.282-2.533 1.282-2.533h-19.577s2.375 2.652 2.375 6.9v16.064c0 3.435-3.074 6.367-3.325 6.451.251.114 3.325 3.13 3.325 6.454v22.963c0 4.079-2.265 6.873-2.265 6.873h5.043c.462-1.146.861-2.629.861-4.341v-22.961z" fill="#324037"/><path d="M548.969 57.672c1.126 0 2.293-.246 3.37-.584l.723-4.521s-4.077 2.57-7.734 2.57h-13.22v2.535h16.862z" fill="#324037"/><path d="M590.573 27.557c.592 0 1.17-.085 1.719-.212v-4.137s-2.57 1.816-5.359 1.816h-7.671v2.533h11.311z" fill="#324037"/><path d="M596.238 57.672c1.13 0 2.298-.246 3.374-.584l.722-4.521s-4.074 2.57-7.737 2.57h-13.334v2.535h16.976z" fill="#324037"/><path d="M564.1 40.63c0-3.436-3.071-6.34-3.324-6.455.253-.082 3.324-3.015 3.324-6.451v-16.064c0-4.188-2.371-6.899-2.371-6.899h35.282v-2.533h-38.924s2.373 2.71 2.373 6.9v16.064c0 3.435-3.07 6.367-3.323 6.451.253.114 3.323 3.017 3.323 6.454v22.963c0 4.079-2.262 6.873-2.262 6.873h5.04c.465-1.146.862-2.629.862-4.341v-22.961z" fill="#324037"/></g></svg></symbol>
<symbol id='tpl-badge-mono' viewBox='0 0 43 42'><svg width="43" height="42" viewBox="0 0 43 42" xmlns="http://www.w3.org/2000/svg"><title id="icon-tlp-badge-mono-name">The Last Pickel Badge</title><g fill="#324037"><path d="M34.133 33.577c-3.399 3.363-7.918 5.215-12.726 5.215-4.806 0-9.324-1.852-12.723-5.215-3.399-3.363-5.271-7.834-5.271-12.59s1.872-9.227 5.271-12.59c3.399-3.362 7.917-5.215 12.723-5.215 4.807 0 9.327 1.852 12.726 5.215 3.399 3.363 5.271 7.834 5.271 12.59s-1.872 9.227-5.271 12.59m6.792-8.184c.346-1.529 2.051-2.888 2.047-4.392-.003-1.553-1.724-2.904-2.07-4.381-.352-1.502.585-3.463-.089-4.835-.678-1.379-2.817-1.862-3.786-3.059-.964-1.191-.974-3.364-2.194-4.322-1.2-.943-3.336-.462-4.752-1.13-1.373-.647-2.332-2.601-3.877-2.945-1.545-.344-3.257 1.015-4.777 1.018-1.57.003-3.291-1.337-4.784-.994-1.517.349-2.466 2.308-3.854 2.975-1.394.671-3.537.199-4.746 1.158-1.203.955-1.206 3.124-2.175 4.331-.953 1.188-3.092 1.68-3.768 3.081-.654 1.357.296 3.308-.051 4.837-.348 1.529-2.052 2.889-2.049 4.392.004 1.552 1.724 2.904 2.071 4.381.352 1.501-.585 3.463.089 4.835.679 1.379 2.818 1.862 3.787 3.058.965 1.191.974 3.364 2.194 4.322 1.201.943 3.337.462 4.753 1.13 1.373.647 2.331 2.602 3.877 2.945 1.545.344 3.258-1.015 4.778-1.018 1.569-.004 3.289 1.336 4.783.994 1.518-.349 2.467-2.308 3.853-2.975 1.395-.67 3.537-.199 4.746-1.158 1.204-.954 1.206-3.124 2.175-4.331.953-1.188 3.092-1.68 3.767-3.081.654-1.357-.296-3.308.052-4.837"/><path d="M34.385 18.388c-.043.021-.512.504-.661 1.055-.382 1.415-1.479 2.923-4.078 2.923h-.882v2.387c0 .741.416 1.213.416 1.213h-3.522s.403-.492.403-1.213v-4.074c0-.586-.548-1.094-.592-1.113.044-.015.592-.532.592-1.138v-2.832c0-.749-.424-1.217-.424-1.217h4.196c2.686 0 3.641 1.368 3.926 2.866.122.661.582 1.129.625 1.143zm-3.203 13.697h-13.783s.791-.962.791-2.368v-7.912c0-1.146-1.073-2.186-1.162-2.224.09-.029 1.162-1.04 1.162-2.223v-5.534c0-1.463-.831-2.378-.831-2.378h6.818s-.709.914-.709 2.378v5.534c0 1.183 1.07 2.194 1.158 2.223-.087.038-1.158 1.04-1.158 2.224v5.871h5.876c1.274 0 2.693-.886 2.693-.886l-.856 5.294zm-16.518-12.52c-.045.02-.593.507-.593 1.093v4.094c0 .744.423 1.213.423 1.213h-3.55s.424-.469.424-1.213v-4.049c0-.606-.548-1.118-.593-1.138.045-.015.593-.532.593-1.138v-1.793h-1.998c-.647 0-1.399.458-1.399.458l.463-2.714h8.568l.463 2.714s-.751-.458-1.399-.458h-1.997v1.793c0 .606.547 1.123.593 1.138zm6.744-15.344c-9.343 0-16.944 7.521-16.944 16.765 0 9.245 7.601 16.765 16.944 16.765 9.344 0 16.946-7.521 16.946-16.765s-7.602-16.765-16.946-16.765z"/><path d="M29.51 16.635h-.745v3.473h.772c.817 0 1.638-.413 1.638-1.72 0-1.335-.811-1.753-1.665-1.753"/></g></svg></symbol>
</svg>
